<?xml version="1.0" encoding="utf-8"?>
<!-- Generator: Adobe Illustrator 22.0.1, SVG Export Plug-In . SVG Version: 6.00 Build 0)  -->
<svg version="1.1" id="Layer_5" xmlns="http://www.w3.org/2000/svg" xmlns:xlink="http://www.w3.org/1999/xlink" x="0px" y="0px"
	 viewBox="0 0 215 281" style="enable-background:new 0 0 215 281;" xml:space="preserve">
<style type="text/css">
	.st0{fill:url(#SVGID_1_);}
	.st1{fill:url(#SVGID_2_);}
	.st2{fill:#0F4487;}
	.st3{fill:url(#SVGID_3_);}
	.st4{fill:#FFFFFF;}
	.st5{fill:none;stroke:#97B5BF;stroke-width:0.3613;stroke-miterlimit:10;}
	.st6{fill:#1365B5;}
	.st7{fill:#75D803;}
	.st8{fill:#75D803;stroke:#75D803;stroke-width:0.7576;stroke-miterlimit:10;}
	.st9{fill:#75D803;stroke:#75D803;stroke-width:0.7087;stroke-miterlimit:10;}
	.st10{display:none;}
	.st11{display:inline;fill:#75D803;stroke:#75D803;stroke-width:0.7087;stroke-miterlimit:10;}
</style>
<g>
	<g>
		<g>
			
				<linearGradient id="SVGID_1_" gradientUnits="userSpaceOnUse" x1="-33.2177" y1="103.4497" x2="541.3806" y2="313.9461" gradientTransform="matrix(1.0532 -2.901796e-02 2.733979e-02 0.9923 -4.3729 4.4696)">
				<stop  offset="0" style="stop-color:#0051E9"/>
				<stop  offset="1" style="stop-color:#00C9FF"/>
			</linearGradient>
			<path class="st0" d="M17.7,196.9C14.4,180.7,9.2,130,64.3,99c0,0,54.9-32.5,113.4,8.9c-2.6-3.1-7.3-6.3-7.3-6.3
				c-6.8-5-14.4-9-22.4-12.1C118.3,78,89.8,77.8,61.3,91.1C36,103,15.8,125.9,8.7,151.6c-4.2,15.3-4.4,31.4-2.2,47L17.7,196.9z"/>
			
				<linearGradient id="SVGID_2_" gradientUnits="userSpaceOnUse" x1="-31.9907" y1="83.8236" x2="578.9374" y2="307.6289" gradientTransform="matrix(1 -2.932218e-02 2.599032e-02 1.0075 -3.8575 1.5172)">
				<stop  offset="0" style="stop-color:#0051E9"/>
				<stop  offset="1" style="stop-color:#00C9FF"/>
			</linearGradient>
			<path class="st1" d="M195.6,216l4-17.8c0.7-3.3,0.9-5.3,1.3-8.7c0.6-6.7,0.5-13.5-0.3-20.2c-1.6-13.3-6.1-26.4-13.4-37.7
				c-14.4-22.5-39.4-37.9-65.9-40.5c10.4,0.5,16.6,1.6,24.8,4.2c17.2,5.5,33.1,15.9,44.1,30.2c16.9,22.1,24.8,48,14.4,93
				C204.7,218.7,196,214.4,195.6,216z"/>
		</g>
	</g>
	<g>
		<g>
			<path class="st2" d="M91.2,82.4c0,0-4.1,3.7-2.3,9.7l3,8l28.7-11.1l-3.6-9.5c0,0-2.6-4.7-7.8-4c0,0-2-11.6-10.2-11l-8.3,3.5
				C90.6,68.1,84.3,72.1,91.2,82.4z"/>
			<path class="st2" d="M93.6,75.8l-26.4-65c-0.8-2,0.2-4.3,2.1-5.1L71.2,5c2-0.8,4.3,0.2,5.1,2.1l26.4,65c0.8,2-0.2,4.3-2.1,5.1
				L98.6,78C96.6,78.8,94.4,77.8,93.6,75.8z"/>
			<g>
				
					<linearGradient id="SVGID_3_" gradientUnits="userSpaceOnUse" x1="86.6541" y1="109.8687" x2="151.0996" y2="109.8687" gradientTransform="matrix(0.9971 -7.623974e-02 7.623974e-02 0.9971 -4.6266 19.8883)">
					<stop  offset="0" style="stop-color:#028F86"/>
					<stop  offset="1" style="stop-color:#E8FF3F"/>
				</linearGradient>
				<path class="st3" d="M154.8,123.7c0,0-3.7,1.1-8,3c-0.7,0.3-1.4,0.6-2.2,1c-2.3,1.1-4.6,2.4-6.5,3.8c-1,0.7-1.9,1.5-2.7,2.4
					c0,0-0.1,0.1-0.1,0.1c0,0-12.2,8.9-17,11.6c0,0-2.4,0.8-5.6,1.6c-3.6,0.9-8.2,1.9-11.5,2c-1,0-2-0.1-2.7-0.3l-0.3,0l-6.1-0.4
					c0,0,8.1-17.6,3.3-39.2l-1.9-5.2l28-10.7C121.6,93.3,135.1,116.1,154.8,123.7z"/>
				<path class="st4" d="M101.4,139.8l-0.3,9.3c-1,0-2-0.1-2.7-0.3l-0.3,0L101.4,139.8z"/>
				<path class="st4" d="M112.7,147.1c2.9-12.3,1.8-25.6,1.8-25.6c2.2,3.8,3.7,21.9,3.8,24C118.3,145.5,115.9,146.3,112.7,147.1z"/>
				<path class="st5" d="M110.5,118.5"/>
				<path class="st4" d="M138.2,131.4c-1,0.7-1.9,1.5-2.7,2.4c-1.7-2.3-10-15.7-10.3-16.1L138.2,131.4z"/>
				<path class="st4" d="M146.9,126.6c-0.7,0.3-1.4,0.6-2.2,1l-4.9-6.5L146.9,126.6z"/>
				<path class="st4" d="M96.2,105l3.5-1.5c0,0,2.9,17.5-1.5,27.5C98.2,131,100,117.2,96.2,105z"/>
			</g>
		</g>
		<polygon class="st4" points="69.2,12.8 91.8,67.2 71.7,10.7 		"/>
	</g>
	<g id="XMLID_4627_">
		<g id="XMLID_1280_">
			<path id="XMLID_1289_" class="st6" d="M81.5,128L81.5,128l-17.9,8.7v81.7h36.6l1.2-0.1v-81.2L81.5,128z M69.1,180.7l-3.6,1.6
				v-5.1l3.6-0.8V180.7z M69.1,171.7l-3.6,1.6v-4.4l3.6-1.6V171.7z M69.1,162.7l-3.6,1.6V160l3.6-1.6V162.7z M69.1,153.8l-3.6,1.6
				V151l3.6-1.6V153.8z M69.1,144.8l-3.6,1.6v-4.4l3.6-1.6V144.8z M74.9,178.2l-5.3,2.3v-4.4l5.3-2.3V178.2z M74.9,169.2l-5.3,2.3
				v-4.4l5.3-2.3V169.2z M74.9,160.3l-5.3,2.3v-4.4l5.3-2.3V160.3z M74.9,151.3l-5.3,2.3v-4.4l5.3-2.3V151.3z M74.9,142.3l-5.3,2.3
				v-4.4l5.3-2.3V142.3z M80.3,175.8l-5,2.2v-4.4l5-2.2V175.8z M80.3,166.8l-5,2.2v-4.4l5-2.2V166.8z M80.3,157.9l-5,2.2v-4.4l5-2.2
				V157.9z M80.3,148.9l-5,2.2v-4.4l5-2.2V148.9z M80.3,140l-5,2.2v-4.4l5-2.2V140z M104.5,218.2
				C104.5,218.2,104.5,218.2,104.5,218.2L104.5,218.2L104.5,218.2L104.5,218.2L104.5,218.2z"/>
			<path class="st6" d="M120.8,149.4L120.8,149.4l-14.6,9.2v47.8c0,0.1,0.1,3.3,0.1,7.8l0,2.5h0v0h0l-0.1,6.5l30.8,3.4v-67.6
				L120.8,149.4z M115.7,159.7l4-2.3v4.6l-4,2.3V159.7z M115.7,169.2l4-2.3v4.7l-4,2.3V169.2z M115.7,178.7l4-2.3v4.7l-4,2.3V178.7z
				 M115.7,188.2l4-2.3v4.7l-4,2.3V188.2z M111.1,162.4l4.3-2.4v4.7l-4.3,2.4V162.4z M111.1,171.9l4.3-2.4v4.7l-4.3,2.4V171.9z
				 M111.1,181.4l4.3-2.4v4.7l-4.3,2.4V181.4z M111.1,190.9l4.3-2.4v4.7l-4.3,2.4V190.9z M107.7,164.3l3-1.7v4.7l-3,1.7V164.3z
				 M107.7,173.8l3-1.7v4.7l-3,1.7V173.8z M107.7,183.3l3-1.7v4.7l-3,1.7V183.3z M107.7,192.8l3-1.7v4.7l-3,1.7V192.8z"/>
		</g>
		<rect x="108" y="218.2" class="st6" width="0" height="0"/>
		<path class="st6" d="M161.9,119.1L161.9,119.1l-19.9,9.1v98.9l37.8-2.4v-97L161.9,119.1z M174.2,131.5l3.6,1.6v4.4l-3.6-1.6V131.5
			z M174.2,140.5l3.6,1.6v4.4l-3.6-1.6V140.5z M174.2,149.4l3.6,1.6v4.4l-3.6-1.6V149.4z M174.2,158.4l3.6,1.6v4.4l-3.6-1.6V158.4z
			 M174.2,167.3l3.6,1.6v4.4l-3.6-1.6V167.3z M168.5,129l5.3,2.3v4.4l-5.3-2.3V129z M168.5,138l5.3,2.3v4.4l-5.3-2.3V138z
			 M168.5,146.9l5.3,2.3v4.4l-5.3-2.3V146.9z M168.5,155.9l5.3,2.3v4.4l-5.3-2.3V155.9z M168.5,164.8l5.3,2.3v4.4l-5.3-2.3V164.8z
			 M163.1,126.7l5,2.2v4.4l-5-2.2V126.7z M163.1,135.6l5,2.2v4.4l-5-2.2V135.6z M163.1,144.6l5,2.2v4.4l-5-2.2V144.6z M163.1,153.5
			l5,2.2v4.4l-5-2.2V153.5z M163.1,162.5l5,2.2v4.4l-5-2.2V162.5z"/>
	</g>
	<g>
		
			<ellipse id="XMLID_1941_" transform="matrix(0.9963 -8.615833e-02 8.615833e-02 0.9963 -12.8362 11.3942)" class="st7" cx="125.6" cy="154.4" rx="10.2" ry="9.6"/>
		
			<ellipse id="XMLID_1928_" transform="matrix(0.9963 -8.613558e-02 8.613558e-02 0.9963 -10.5331 12.2027)" class="st6" cx="136.1" cy="128.2" rx="8.7" ry="8.2"/>
		<path class="st7" d="M94.4,133.5c-3.1-3.8-3.8-3.9-8.4-2c4.1-3,4.2-3.6,2.2-8c3.1,3.8,3.8,3.9,8.4,2
			C92.5,128.5,92.3,129.1,94.4,133.5z"/>
		
			<ellipse id="XMLID_1926_" transform="matrix(0.9963 -8.608649e-02 8.608649e-02 0.9963 -11.4086 9.9333)" class="st7" cx="109.5" cy="137.2" rx="3.5" ry="3.4"/>
		
			<ellipse id="XMLID_1925_" transform="matrix(0.9963 -8.617464e-02 8.617464e-02 0.9963 -9.9791 10.2942)" class="st6" cx="114.2" cy="120.7" rx="3.5" ry="3.4"/>
		
			<ellipse id="XMLID_1_" transform="matrix(0.9963 -8.617464e-02 8.617464e-02 0.9963 -9.3469 13.4556)" class="st6" cx="151.2" cy="115" rx="3.5" ry="3.4"/>
		
			<ellipse id="XMLID_1924_" transform="matrix(0.9963 -8.608681e-02 8.608681e-02 0.9963 -8.8923 11.0654)" class="st6" cx="123.9" cy="108.6" rx="3.5" ry="3.4"/>
	</g>
</g>
<g>
	<g>
		<path class="st8" d="M12.6,242.4l-0.4,0c-0.8-0.1-1.6-0.4-2.3-0.8c-0.6-0.3-1.2-0.8-1.7-1.3c-0.8-0.8-1.4-1.9-1.6-3l-0.1-0.3
			l0-0.3c-0.1-7-0.2-13.3-0.3-19l-0.3-13.6c0-1.9-0.1-3.6-0.1-4.9c0-1.2,0-2-0.1-2.5c-0.1-1.7,0.6-3.4,2.1-4.5
			c0.9-0.7,2-1.1,3.1-1.3c0.4-0.1,0.7-0.1,1.1-0.1c1,0,1.9,0.2,2.7,0.6c1.9,0.9,3,2.8,2.9,5.1c0,0.1,0,0.5,0.3,1.7
			c0.3,1.3,0.7,2.8,1.2,4.6c0.5,1.8,1.1,3.8,1.8,6c0.5,1.5,0.9,2.9,1.4,4.4c0.1-0.5,0.2-1,0.3-1.4c0.4-2,0.8-4,1.1-6
			c0.4-1.9,0.7-3.8,1-5.5c0.2-1.4,0.5-2.7,0.6-3.9l0-0.5v-1l0.4-0.9c0.8-1.6,2.4-2.5,4.2-2.5l0.2,0c0.8,0,1.5,0.2,2.3,0.5
			c0.5,0.2,1,0.5,1.6,0.8c0.6,0.3,1.1,0.7,1.6,1c0.5,0.4,0.9,0.8,1.3,1.1c1.1,1.2,1.4,2.5,1.3,3.6l-1,38.8l0,0.1
			c-0.2,2.4-2.1,4.2-4.5,4.2l-0.2,0c-0.8,0-1.6-0.3-2.4-0.6c-0.6-0.3-1.2-0.7-1.7-1.1c-0.2-0.2-0.4-0.4-0.6-0.6
			c-0.7,0.5-1.5,0.8-2.4,0.8c-0.2,0-0.3,0-0.5,0c-0.2,0-0.3,0-0.5,0H24l-0.2-0.2c-0.3-0.1-0.7-0.2-1-0.4c-0.7-0.4-1.4-0.9-2.1-1.5
			c-0.6-0.5-1.2-1.2-1.7-1.8c-0.7-0.9-1.2-1.7-1.4-2.6c0,0,0-0.1,0-0.1l-0.1,6.1l-0.9,1.1c-0.9,1-2.2,1.6-3.6,1.6H12.6z"/>
		<path class="st8" d="M41.4,236.6c-0.3,0-0.6,0-0.8,0c-0.7-0.1-1.4-0.2-2.2-0.5c-1.2-0.4-2.3-1.3-3.3-2.4c-0.9-1-1.5-2.4-2-4.1
			c-0.5-1.6-0.7-3.5-0.7-5.9c0-2,0.2-3.7,0.6-5.2c0.4-1.5,0.8-2.8,1.4-3.9c0.7-1.2,1.4-2.2,2.3-2.9c0.8-0.7,1.7-1.2,2.6-1.6
			c0.8-0.3,1.6-0.5,2.3-0.6c0.5-0.1,0.9-0.1,1.1-0.1c0.7,0,1.4,0.1,2.1,0.4l0.4-0.1l0.5,0c0.2,0,0.6,0,0.9,0.1
			c0.6,0.1,1.2,0.2,1.9,0.4c0.9,0.3,1.8,0.9,2.4,1.6c1.1,1.1,1.6,2.6,1.4,4.3l0,0.3c0,0.2-0.1,1.9-0.2,2.6l0.1,0
			c0.5,0.1,0.9,0.2,1.3,0.3l2.7,1l0.1,3c0,0.6-0.1,1-0.3,1.8c-0.1,0.5-0.3,1.2-0.6,1.9c-0.2,0.8-0.6,1.6-0.9,2.6
			c-0.4,1-0.9,1.9-1.4,2.8c-0.6,1-1.3,1.9-2.1,2.6c-1.6,1.4-3.2,1.7-4.2,1.7c0,0-0.3,0-0.3,0c-0.7,0-1.5-0.2-2.2-0.5
			c-0.1,0-0.1,0.1-0.2,0.1c-0.8,0.3-1.5,0.4-2.2,0.5L41.4,236.6z"/>
		<path class="st8" d="M60,236.9c-0.6,0-1.1,0-1.6-0.1c-0.8-0.1-1.7-0.4-2.4-0.9c-0.5,0.3-1,0.5-1.7,0.6c-0.5,0.1-1,0.1-1.5,0.1
			c-0.2,0-0.5,0-0.8,0c-1.1-0.1-2.1-0.4-3-0.9c-1.7-1-2.6-2.8-2.4-4.7c0-0.3,0-0.8,0.1-1.6h0l0.1-4.3c0-1.3,0.1-2.8,0.1-4.5
			l0.3-10.7c0-1.8,0.1-3.4,0.1-4.9c0-1.5,0-2.7,0-3.8c0-0.9,0-1.5-0.1-1.8c-0.2-2,1-4.3,3.8-4.8c0.5-0.1,1-0.1,1.5-0.1
			c0.2,0,0.5,0,0.7,0c1,0.1,2,0.4,2.9,0.9c1.7,1,2.7,2.8,2.6,4.7c0,0.9-0.2,6.2-0.2,7.8l0,1.6c0.2,0,0.4,0,0.5,0
			c2.1,0,3.8,0.6,5.2,1.7c1.3,1,2.3,2.4,2.8,4c0.4,1.3,0.5,2.7,0.3,4.2c2.3,0.6,3.4,2.5,3.4,4.2c0,0.4,0,1-0.1,1.7
			c-0.1,0.7-0.2,1.5-0.4,2.3c-0.2,0.8-0.5,1.6-0.8,2.5c-0.4,1-0.9,1.9-1.4,2.7c-0.7,0.9-1.4,1.7-2.4,2.4c-1.1,0.8-2.3,1.3-3.7,1.5
			C61.1,236.8,60.6,236.9,60,236.9z"/>
		<path class="st8" d="M70.2,236.7c-1.3,0-2.6-0.3-3.7-0.9c-1.1-0.6-1.9-1.4-2.7-2.3c-0.6-0.8-1.1-1.6-1.4-2.6
			c-0.3-0.8-0.6-1.6-0.7-2.4c-0.1-0.7-0.2-1.3-0.3-1.8c-0.1-0.6-0.1-1.1-0.1-1.3c0-0.3,0-0.9,0-1.6c0-0.8,0.1-1.7,0.2-2.6
			c0.1-1,0.3-2,0.6-3.1c0.3-1.2,0.7-2.4,1.2-3.4c0.6-1.2,1.4-2.3,2.3-3.1c1.2-1.2,2.8-1.8,4.5-2c0.2,0,0.5,0,0.7,0
			c1.8,0,3.4,0.6,4.7,1.8c1,1,1.8,2.2,2.4,3.6c0.5,1.2,0.8,2.4,0.9,3.8c0,0.1,0,0.3,0,0.4c1.4,0.6,2.5,1.8,2.8,3.3l0.1,0.4v0.4
			c0,0.5-0.1,0.9-0.3,1.8c-0.1,0.6-0.4,1.4-0.7,2.2c-0.3,0.8-0.7,1.7-1.1,2.6c-0.5,1-1.1,2-1.8,2.9c-0.8,1-1.7,1.8-2.8,2.5
			c-1.3,0.9-2.8,1.4-4.4,1.5C70.5,236.7,70.3,236.7,70.2,236.7z"/>
	</g>
	<g>
		<path class="st6" d="M29.8,194.8c0.1-0.2,0.3-0.3,0.6-0.3c0.3,0,0.6,0.1,1,0.2c0.4,0.1,0.7,0.3,1.1,0.6c0.4,0.2,0.8,0.5,1.1,0.7
			c0.3,0.2,0.6,0.5,0.8,0.7c0.2,0.2,0.3,0.3,0.2,0.4l-1,39c0,0.3-0.2,0.4-0.4,0.4c-0.2,0-0.5-0.1-0.8-0.2c-0.3-0.1-0.5-0.3-0.8-0.5
			c-0.2-0.2-0.4-0.4-0.4-0.5c0-3.8-0.1-7.5-0.2-11.3c0-1.6-0.1-3.3-0.1-5c0-1.7-0.1-3.5-0.1-5.3c0-1.8-0.1-3.5-0.1-5.2
			c0-1.7-0.1-3.3-0.2-4.8c-0.3,1.4-0.6,2.9-1,4.7c-0.4,1.8-0.7,3.6-1.1,5.5c-0.4,1.9-0.7,3.9-1,5.9c-0.3,2-0.6,3.9-0.9,5.7
			c-0.2,1.8-0.4,3.5-0.6,5c-0.1,1.5-0.2,2.8-0.2,3.8c0,0.1,0,0.2,0.1,0.2c0,0,0,0.1,0,0.1l-0.1,0.1c0,0,0,0.1,0,0.1s0,0.1,0,0.1
			c0,0,0,0-0.1-0.1c-0.2,0.2-0.5,0.1-0.9-0.1c-0.4-0.2-0.8-0.5-1.3-0.9c-0.4-0.4-0.9-0.8-1.2-1.3c-0.4-0.5-0.6-0.9-0.7-1.3
			c-0.3-1.1-0.8-2.6-1.3-4.4c-0.6-1.8-1.2-3.9-1.9-6c-0.7-2.2-1.5-4.5-2.2-6.9c-0.8-2.4-1.5-4.6-2.2-6.8L13.3,237
			c-0.1,0.1-0.3,0.2-0.6,0.2c-0.3,0-0.5-0.1-0.8-0.3c-0.3-0.2-0.5-0.3-0.8-0.6c-0.2-0.2-0.4-0.5-0.4-0.7c-0.1-7-0.2-13.3-0.3-19
			c0-2.4-0.1-4.8-0.1-7.2c0-2.4-0.1-4.5-0.1-6.5c0-1.9-0.1-3.6-0.1-4.9c0-1.3-0.1-2.2-0.1-2.5v-0.1c-0.1-0.4,0.1-0.7,0.5-1
			c0.4-0.3,0.8-0.5,1.3-0.5c0.5-0.1,0.9,0,1.3,0.2c0.4,0.2,0.6,0.6,0.6,1.2c0,0.5,0.1,1.5,0.4,2.8c0.3,1.3,0.7,2.9,1.3,4.8
			c0.5,1.9,1.2,3.9,1.9,6.1c0.7,2.2,1.4,4.4,2.2,6.7c0.7,2.3,1.5,4.5,2.2,6.6c0.7,2.2,1.4,4.1,2,5.8c0.3-1.4,0.6-3,1-4.8
			c0.4-1.8,0.8-3.7,1.2-5.7c0.4-2,0.8-4,1.2-6.1c0.4-2.1,0.8-4.1,1.1-6c0.4-2,0.7-3.8,1-5.6c0.3-1.7,0.5-3.3,0.7-4.7
			c0-0.1,0-0.2-0.1-0.2C29.8,194.9,29.8,194.9,29.8,194.8z"/>
		<path class="st6" d="M45.5,212.7c0.1,0,0.4,0,0.7,0c0.3,0,0.6,0.1,0.9,0.2c0.3,0.1,0.6,0.3,0.8,0.5c0.2,0.2,0.3,0.6,0.3,1
			c0,0.1-0.1,0.5-0.1,1.3c0,0.8-0.1,1.7-0.2,2.8s-0.1,2.3-0.2,3.5c0,1.2-0.1,2.4-0.1,3.4c0,1,0,1.9,0,2.6c0,0.7,0.1,1.1,0.2,1.1
			c0.2,0,0.5-0.1,0.8-0.5c0.3-0.4,0.5-0.8,0.8-1.4c0.2-0.5,0.5-1.1,0.7-1.8c0.2-0.6,0.4-1.2,0.6-1.8c0.2-0.5,0.3-1,0.4-1.4
			c0.1-0.4,0.2-0.5,0.2-0.5c0,0,0.1,0,0.2,0c0.1,0,0.2,0,0.3,0c0.1,0,0.2,0,0.3,0.1c0.1,0,0.1,0.1,0.1,0.2c0,0-0.1,0.3-0.2,0.8
			c-0.1,0.5-0.3,1.1-0.5,1.7c-0.2,0.7-0.5,1.4-0.8,2.2c-0.3,0.8-0.7,1.5-1.1,2.2c-0.4,0.7-0.9,1.2-1.4,1.7c-0.5,0.4-1,0.6-1.6,0.6
			c-0.3,0-0.5-0.1-0.7-0.2c-0.2-0.1-0.4-0.3-0.5-0.5c-0.2-0.2-0.3-0.4-0.4-0.7c-0.1-0.2-0.2-0.5-0.2-0.7c-0.3,0.5-0.7,1-1,1.2
			c-0.4,0.3-0.8,0.5-1.1,0.6c-0.4,0.1-0.7,0.2-1,0.2c-0.3,0-0.5,0-0.6,0c-0.3,0-0.7-0.1-1.2-0.3c-0.5-0.2-1-0.6-1.5-1.2
			c-0.5-0.6-0.9-1.5-1.3-2.6c-0.3-1.2-0.5-2.7-0.5-4.7c0-1.7,0.2-3.1,0.5-4.3c0.3-1.2,0.6-2.1,1-2.9c0.4-0.7,0.9-1.3,1.4-1.7
			c0.5-0.4,1-0.7,1.4-0.9c0.5-0.2,0.9-0.3,1.2-0.3c0.3,0,0.6-0.1,0.8-0.1c0.3,0,0.6,0.1,0.9,0.2c0.3,0.1,0.5,0.3,0.7,0.5
			c0.2,0.2,0.4,0.4,0.5,0.7c0.1,0.2,0.3,0.5,0.4,0.7c0-0.6,0.1-1,0.1-1.3C45.5,212.9,45.5,212.7,45.5,212.7z M42.1,229.7
			c0.4,0,0.8-0.1,1.1-0.3c0.3-0.2,0.5-0.5,0.7-0.8c0.2-0.3,0.3-0.6,0.5-1s0.2-0.7,0.3-1c0-0.6,0-1.3,0.1-2.1c0-0.8,0.1-1.6,0.1-2.5
			c0-0.9,0.1-1.8,0.1-2.7c0.1-0.9,0.1-1.8,0.2-2.6c0,0-0.1,0-0.1-0.2c0-0.3,0-0.6-0.2-0.9c-0.1-0.3-0.3-0.6-0.5-0.9
			c-0.2-0.3-0.4-0.5-0.7-0.7c-0.2-0.2-0.5-0.3-0.7-0.3c-0.4,0-0.8,0.2-1.1,0.5c-0.3,0.3-0.6,0.8-0.9,1.3c-0.2,0.5-0.5,1.1-0.6,1.8
			c-0.2,0.6-0.3,1.3-0.4,1.9c-0.1,0.6-0.2,1.2-0.2,1.8c-0.1,0.5-0.1,1-0.1,1.3c0,0.5-0.1,1.1,0,1.9c0,0.8,0.1,1.7,0.3,2.5
			c0.2,0.8,0.4,1.5,0.7,2.1C41,229.4,41.5,229.7,42.1,229.7z"/>
		<path class="st6" d="M66.5,222.4c0,0.3,0,0.8-0.1,1.3c-0.1,0.5-0.2,1.1-0.3,1.8c-0.2,0.6-0.4,1.3-0.6,2c-0.3,0.7-0.6,1.3-1,1.8
			c-0.4,0.6-0.9,1-1.4,1.5c-0.6,0.4-1.2,0.7-1.9,0.8c-0.8,0.1-1.5,0.1-2.1,0c-0.6-0.1-1.2-0.4-1.8-0.9c-0.6-0.5-1.1-1.2-1.7-2.1
			c-0.5-0.9-1.1-2.2-1.7-3.7c0,1.5,0,2.8,0,3.9c0,1.1,0.1,1.8,0.1,2.2c0,0.1-0.1,0.2-0.5,0.3c-0.4,0.1-0.7,0.1-1.2,0.1
			c-0.4,0-0.8-0.2-1.2-0.4c-0.3-0.2-0.5-0.5-0.4-0.9c0-0.1,0-0.7,0.1-1.8c0-1.1,0.1-2.5,0.1-4.3h0c0-1.3,0.1-2.8,0.1-4.5
			c0-1.7,0.1-3.5,0.1-5.3c0-1.8,0.1-3.6,0.1-5.4c0-1.8,0.1-3.4,0.1-5c0-1.5,0-2.8,0-3.9c0-1.1-0.1-1.8-0.1-2.2
			c0-0.1,0.1-0.2,0.5-0.3c0.3-0.1,0.7-0.1,1.1-0.1c0.4,0,0.8,0.2,1.2,0.4c0.4,0.2,0.5,0.5,0.5,0.9c0,1-0.1,2.1-0.1,3.5
			c0,1.4-0.1,2.8-0.1,4.4c0,1.6-0.1,3.2-0.1,5c0,1.7-0.1,3.4-0.1,5.1c0.2-0.5,0.5-1.1,0.8-1.6c0.3-0.5,0.7-1,1-1.4
			c0.4-0.4,0.8-0.7,1.4-1s1.1-0.4,1.7-0.4c1.1,0,2,0.3,2.6,0.8c0.7,0.5,1.1,1.2,1.4,2c0.2,0.8,0.3,1.7,0.2,2.6
			c-0.1,0.9-0.5,1.9-1,2.8c-0.5,0.9-1.3,1.7-2.2,2.5c-0.9,0.8-2,1.3-3.2,1.7c0.8,1.3,1.4,2.3,2,3c0.6,0.7,1.1,1.3,1.6,1.6
			c0.5,0.3,0.9,0.4,1.4,0.3c0.4-0.1,0.9-0.4,1.4-0.9c0.5-0.5,0.9-1.1,1.2-1.8c0.3-0.8,0.5-1.5,0.7-2.2c0.2-0.7,0.3-1.3,0.3-1.8
			c0.1-0.5,0.1-0.8,0.2-0.8c0.1,0,0.2,0,0.5,0.1C66.4,222.2,66.5,222.3,66.5,222.4z M54,221.6c0,0.5,0,0.9,0,1.4c0,0.5,0,0.9,0,1.3
			c0.9-0.5,1.8-1,2.5-1.7c0.7-0.7,1.4-1.4,1.9-2.1c0.5-0.7,0.9-1.5,1.1-2.2c0.2-0.7,0.3-1.4,0.3-1.9c-0.1-0.6-0.3-1-0.6-1.3
			c-0.4-0.3-0.9-0.4-1.6-0.2c-0.5,0.1-0.9,0.4-1.3,0.9c-0.4,0.5-0.7,1.1-1,1.8c-0.3,0.7-0.5,1.4-0.7,2.1
			C54.3,220.3,54.2,220.9,54,221.6z"/>
		<path class="st6" d="M70.5,212.4c0.9-0.1,1.6,0.1,2.2,0.7c0.6,0.5,1,1.2,1.4,2.1c0.3,0.8,0.5,1.7,0.6,2.7c0.1,1,0.1,1.8,0.1,2.6
			c-0.2,1.7-0.5,3-1,4c-0.5,1-1,1.7-1.6,2.2c-0.6,0.5-1.2,0.8-1.8,1c-0.6,0.1-1.1,0.2-1.5,0.2c0.3,0.9,0.7,1.4,1.1,1.7
			c0.4,0.3,0.7,0.4,0.9,0.4c0.6,0,1.1-0.2,1.6-0.6c0.5-0.3,0.9-0.7,1.3-1.2c0.4-0.5,0.7-1.1,1-1.7c0.3-0.6,0.6-1.2,0.8-1.8
			c0.2-0.6,0.4-1.1,0.5-1.6c0.1-0.5,0.2-0.9,0.3-1.2c0-0.1,0.2-0.2,0.5-0.2c0.3,0,0.5,0.1,0.5,0.4c0,0.1-0.1,0.3-0.2,0.8
			c-0.1,0.5-0.3,1.1-0.5,1.8c-0.2,0.7-0.6,1.4-0.9,2.2c-0.4,0.8-0.8,1.5-1.4,2.2c-0.5,0.7-1.1,1.2-1.8,1.7c-0.7,0.5-1.4,0.7-2.3,0.8
			c-0.7,0-1.4-0.1-1.9-0.4c-0.5-0.3-1-0.7-1.4-1.2c-0.4-0.5-0.7-1-0.9-1.6c-0.2-0.6-0.4-1.2-0.5-1.7c-0.1-0.6-0.2-1-0.2-1.5
			c0-0.4-0.1-0.7-0.1-0.9c0-0.3,0-0.8,0-1.5s0.1-1.4,0.2-2.3c0.1-0.8,0.3-1.7,0.5-2.6c0.2-0.9,0.5-1.8,0.9-2.5
			c0.4-0.8,0.9-1.4,1.4-1.9C69,212.8,69.7,212.5,70.5,212.4z M68.4,224c0,0.6,0,1.2,0,1.7c0,0.5,0.1,0.9,0.2,1.3c0.3,0,0.6,0,1-0.1
			c0.4-0.1,0.8-0.3,1.2-0.8c0.4-0.4,0.8-1.1,1.1-1.9c0.3-0.9,0.5-2.1,0.6-3.6c0.1-2.5,0-4.3-0.4-5.4c-0.4-1.1-0.9-1.6-1.6-1.5
			c-0.2,0-0.4,0.3-0.6,0.6s-0.4,0.9-0.5,1.5c-0.2,0.6-0.3,1.3-0.4,2c-0.1,0.7-0.2,1.5-0.3,2.2c-0.1,0.8-0.2,1.5-0.2,2.2
			C68.4,222.9,68.4,223.5,68.4,224z"/>
	</g>
	<g>
		<path class="st9" d="M88.1,247.2c-0.5,0-1-0.1-1.4-0.2c-0.9-0.3-1.7-0.8-2.4-1.4c-0.6-0.6-1.2-1.2-1.5-1.9
			c-0.7-1.3-0.7-2.7-0.1-3.9c0.3-0.6,0.7-1.1,1.2-1.4c0.5-0.5,1.2-1,2-1.5c0.2-1.1,0.4-2.4,0.7-3.8c0.2-1.3,0.4-2.6,0.7-4
			c-0.3,0-0.6,0-0.9,0c-0.7,0-1.5-0.1-2.2-0.3c-1.3-0.4-2.4-1.2-3.1-2.3c-0.7-1.1-1.3-2.5-1.6-4.1c-0.2-1.3-0.3-2.8-0.2-4.3
			c0.1-1.4,0.3-2.9,0.7-4.4c0.3-1.5,0.8-2.9,1.3-4.3c0.5-1.4,1.1-2.8,1.8-4.1c0.7-1.3,1.5-2.5,2.3-3.6c0.9-1.2,1.9-2.1,2.9-2.9
			c1.3-1,2.8-1.5,4.2-1.6l0.3,0c2.2,0,4,1.2,5.1,3.3c0.6,1.2,1.1,2.8,1.3,4.7c0.2,1.6,0.3,3.5,0.3,5.5c0,2-0.1,4.1-0.2,6.3
			c-0.1,2.2-0.3,4.3-0.5,6.5c-0.2,2.2-0.4,4.2-0.7,6.2c-0.2,1.3-0.3,2.5-0.5,3.6c0,0,1.1,0,1.1,0l0.2,0.4c0.2,0.1,0.5,0.3,0.7,0.4
			c0.8,0.6,1.5,1.3,1.8,2.2l0.6,1.5l-0.7,1.7c-0.5,1-1.4,1.8-2.5,2.2l-0.2,0.1c-0.3,0.1-0.7,0.2-1.2,0.5c-0.7,0.3-1.5,0.7-2.3,1.1
			c-0.8,0.4-1.6,0.8-2.4,1.3c-0.7,0.4-1.1,0.7-1.3,1C90.6,246.7,89.4,247.2,88.1,247.2z"/>
		<path class="st9" d="M100.5,241.3c-1.1,0-2.3-0.4-3.3-1.3c-0.6-0.5-1.1-1.2-1.5-2c-0.3-0.5-0.5-1.1-0.6-1.7
			c-0.1-0.6-0.2-1.2-0.2-1.7l0-1.2c0-0.7,0-1.5,0.1-2.5c0-1,0.3-10.5,0.3-11.9c0-0.1,0-0.3,0-0.4c-0.5,0-0.9,0-1.3,0l-2,0l-1.3-1.4
			c-0.8-0.9-1.1-2.1-0.8-3.3c0.1-0.6,0.3-1.1,0.7-1.6c0.3-0.5,0.8-1,1.3-1.4c0.8-0.6,1.7-0.9,2.6-0.9c0.2,0,0.6,0,1-0.1
			c0-0.4,0-0.8,0-1.1c0-0.6,0-1.1,0-1.6c0-0.4,0-0.6,0-0.8c-0.2-1.9,1-4,3.6-4.5c0.4-0.1,0.9-0.1,1.4-0.1c0.2,0,0.5,0,0.7,0
			c0.9,0.1,1.9,0.4,2.7,0.8c1.7,1,2.6,2.7,2.4,4.6l0,0.1c0,0.3,0,0.8-0.1,1.5l0,0.1c0.5,0,0.7,0,0.7,0c2.5,0,4,1.7,4.4,3.4
			c0.2,1.1,0.1,2.1-0.4,3.1c-0.3,0.6-0.7,1.2-1.2,1.7c-0.7,0.7-1.4,1.2-2.2,1.4c-0.5,0.2-1,0.2-1.5,0.2c0,0,0,0-0.1,0l0,0.6
			c-0.1,1.5-0.1,3.1-0.1,4.6c0,0.2,0,0.5,0,0.7l0.3,0c0.4,0,0.9,0.1,1.2,0.3l2.5,0.9l0.1,2.8c0,0.6-0.1,1-0.3,1.7
			c-0.1,0.5-0.3,1.1-0.5,1.8c-0.2,0.7-0.5,1.5-0.9,2.4c-0.4,0.9-0.8,1.8-1.3,2.6c-0.6,0.9-1.2,1.7-1.9,2.4c-1.2,1-2.5,1.6-4,1.6
			C100.8,241.3,100.5,241.3,100.5,241.3z"/>
	</g>
	<g>
		<path class="st6" d="M96.1,236.1c0.2-0.1,0.4-0.2,0.7-0.1c0.3,0.1,0.5,0.2,0.7,0.3c0.2,0.1,0.3,0.3,0.4,0.4c0.1,0.2,0,0.3-0.2,0.3
			c-0.4,0.1-1,0.3-1.7,0.7c-0.8,0.3-1.6,0.7-2.5,1.2c-0.9,0.5-1.8,0.9-2.6,1.5c-0.9,0.5-1.6,1-2.1,1.5c-0.2,0.3-0.5,0.4-0.9,0.3
			c-0.4-0.1-0.7-0.3-1-0.6c-0.3-0.3-0.5-0.5-0.7-0.8c-0.1-0.3-0.1-0.4,0.1-0.5c0.3-0.4,0.9-0.9,1.7-1.3c0.8-0.4,1.6-0.8,2.5-1.2
			l-1.1-0.4c0.3-1.4,0.6-3,0.9-4.8c0.3-1.8,0.6-3.6,0.9-5.6c0.3-1.9,0.6-3.9,0.9-6c0.3-2,0.5-4,0.7-5.8c0.2-1.9,0.3-3.6,0.4-5.2
			c0.1-1.6,0.1-3,0-4.2c-0.1-1.2-0.2-2.1-0.4-2.7c-0.2-0.6-0.6-0.8-1-0.7c-0.1,0-0.4,0.4-0.9,0.9s-1,1.4-1.6,2.4
			c-0.6,1-1.1,2.2-1.7,3.5c-0.5,1.3-1,2.8-1.2,4.4c-0.3,1.6-0.3,3.2-0.2,5c0.1,1.7,0.6,3.5,1.4,5.3c-0.5,0.1-0.9,0.2-1.4,0.2
			c-0.4,0-0.8-0.1-1.1-0.2c-0.4-0.1-0.7-0.3-0.9-0.7c-0.5-0.8-0.8-1.7-1-2.7c-0.2-1.1-0.2-2.2-0.2-3.4c0.1-1.2,0.3-2.5,0.6-3.8
			c0.3-1.3,0.7-2.6,1.2-3.8s1-2.5,1.6-3.6c0.6-1.1,1.3-2.1,1.9-3c0.7-0.9,1.4-1.6,2.1-2.1c0.7-0.5,1.5-0.8,2.2-0.9
			c0.7,0,1.3,0.4,1.8,1.2c0.4,0.8,0.7,2,0.9,3.4c0.2,1.4,0.3,3.1,0.3,5c0,1.9-0.1,3.9-0.2,6c-0.1,2.1-0.3,4.2-0.5,6.4
			c-0.2,2.1-0.4,4.2-0.7,6.1c-0.2,1.9-0.5,3.6-0.7,5.2c-0.2,1.5-0.4,2.7-0.6,3.6c0.9-0.3,1.7-0.5,2.3-0.6
			C95.9,236.2,96.2,236.1,96.1,236.1z"/>
		<path class="st6" d="M106.8,211.8c0.3,0,0.5,0.1,0.6,0.3c0,0.2,0,0.4-0.1,0.7c-0.1,0.2-0.3,0.5-0.5,0.7c-0.2,0.2-0.4,0.3-0.5,0.4
			c-0.1,0-0.2,0-0.4,0c-0.2,0-0.5,0-0.9,0c-0.4,0-0.8,0-1.3,0c-0.5,0-1,0-1.6,0c0,1.4-0.1,2.9-0.1,4.4c-0.1,1.6-0.1,3.1-0.1,4.6
			c0,1.5-0.1,3-0.1,4.3c0,1.4,0,2.6,0,3.7c0,1.1,0,1.9,0,2.5c0,0.6,0.1,0.9,0.1,0.9c0.2,0,0.5-0.1,0.7-0.5c0.2-0.3,0.5-0.8,0.7-1.3
			c0.2-0.5,0.4-1.1,0.6-1.6c0.2-0.6,0.4-1.1,0.6-1.6c0.2-0.5,0.3-0.9,0.4-1.3c0.1-0.3,0.2-0.5,0.2-0.5c0,0,0.1,0,0.2,0
			c0.1,0,0.2,0,0.3,0c0.1,0,0.2,0,0.3,0.1s0.1,0.1,0.1,0.1c0,0-0.1,0.3-0.2,0.7c-0.1,0.4-0.3,1-0.5,1.6c-0.2,0.6-0.5,1.3-0.8,2.1
			c-0.3,0.7-0.7,1.4-1,2.1c-0.4,0.6-0.8,1.1-1.3,1.5c-0.5,0.4-0.9,0.6-1.5,0.6c-0.4,0-0.7-0.1-0.9-0.3c-0.2-0.2-0.4-0.5-0.6-0.7
			c-0.1-0.3-0.2-0.6-0.3-0.9c-0.1-0.3-0.1-0.6-0.1-0.8c0-0.1,0-0.5,0-1.1c0-0.6,0-1.5,0.1-2.5c0-1,0.1-2.2,0.1-3.5
			c0-1.3,0.1-2.7,0.1-4.1c0-1.4,0.1-2.9,0.1-4.4c0-1.5,0.1-2.9,0.1-4.3c-1,0-2-0.1-2.9-0.1c-0.9,0-1.8,0-2.5,0
			c-0.1,0-0.1-0.1-0.1-0.2c0-0.1,0.1-0.2,0.1-0.3c0.1-0.1,0.2-0.2,0.3-0.3c0.1-0.1,0.2-0.1,0.3-0.1c0.4,0,0.9-0.1,1.5-0.1
			c0.4,0,1-0.1,1.5-0.1c0.6,0,1.2-0.1,1.9-0.2c0-0.9,0-1.8,0-2.6c0-0.8,0-1.5,0-2.2c0-0.6,0-1.2,0-1.7c0-0.5,0-0.8-0.1-1
			c0-0.1,0.1-0.2,0.5-0.3c0.3-0.1,0.7-0.1,1.1,0c0.4,0,0.8,0.1,1.1,0.3c0.3,0.2,0.5,0.5,0.4,0.9c0,0.1-0.1,0.7-0.1,1.9
			c0,1.2-0.1,2.7-0.2,4.5c0.6,0,1.2-0.1,1.8-0.1c0.6,0,1.1-0.1,1.5-0.1c0.4,0,0.8-0.1,1-0.1C106.6,211.9,106.8,211.8,106.8,211.8z"
			/>
	</g>
	<g>
		<path class="st9" d="M124,243.9c-1.7,0-3.2-0.2-4.5-0.7c-1.3-0.5-2.4-1-3.3-1.6c-1.1-0.7-2.1-1.6-2.8-2.6l-1.2-1.5l2.9-10.5l4.7,5
			c0.5,0.5,1,1,1.6,1.3c0.5,0.4,1.1,0.7,1.8,0.9c0.3,0.1,0.7,0.2,1,0.2l0.2,0c0.2,0,0.4-0.1,0.7-0.2c0.1,0,0.2-0.1,0.4-0.2
			c0,0,0.2-0.2,0.4-0.6c0,0,0.1-0.4,0-1.4c0-0.1-0.1-0.3-0.4-0.6c-0.7-0.7-1.5-1.5-2.5-2.2c-1.2-0.9-2.4-1.7-3.7-2.6
			c-1.5-1-2.9-2.1-4.2-3.3c-1.4-1.3-2.7-2.7-3.7-4.2c-1.2-1.8-1.8-3.8-2-6c-0.1-1.7,0-3.5,0.5-5.4c0.5-2,1.4-3.8,2.7-5.4
			c1.3-1.6,3-3,5.1-4.1c2.1-1.1,4.6-1.7,7.6-1.8c0.3,0,0.7,0,1,0c1.9,0,3.6,0.3,5.3,0.8c2,0.6,3.7,1.7,5.2,3c1.5,1.4,2.6,3.1,3.2,5
			c0.7,1.9,0.9,4,0.7,6.3c-0.1,1-0.6,2.5-2.4,3.6c-0.6,0.4-1.3,0.7-2,1c-0.8,0.3-1.5,0.5-2.3,0.5l-0.2,0l-0.3,0
			c-1.4,0-2.7-0.6-3.4-1.7l-1.2-1.6l0.6-2c0-0.1,0.1-0.6,0.2-1.1c0-0.1,0-0.3,0-0.8c-0.1-0.4-0.2-0.8-0.5-1.1
			c-0.3-0.4-0.6-0.8-1-1.1c-0.4-0.3-0.8-0.5-1.3-0.7c-0.3-0.1-0.7-0.2-1.1-0.2l-0.2,0c-0.9,0-1.6,0.2-2,0.4c-0.5,0.3-1,0.6-1.3,0.9
			c-0.3,0.4-0.6,0.7-0.8,1.2c-0.3,0.6-0.5,1.2-0.6,1.7c-0.2,0.7-0.2,1.1-0.2,1.3c0,0.2,0,0.3,0,0.5c0.2,0.8,0.4,1.4,0.8,1.9
			c0.6,0.8,1.4,1.5,2.3,2.2c1,0.8,2.1,1.5,3.3,2.2c1.4,0.9,2.7,1.8,3.9,2.8c1.4,1.1,2.5,2.4,3.5,3.8c1.2,1.7,1.9,3.6,2.1,5.8
			c0.2,2.2,0,4.2-0.7,5.8c-0.7,1.7-1.7,3.1-3,4.1c-1.2,1-2.6,1.8-4.2,2.2c-1.4,0.4-2.8,0.6-4.2,0.7L124,243.9z"/>
		<path class="st9" d="M135.4,255.2c-0.6,0-1.2-0.2-1.8-0.3c-1-0.3-1.8-0.8-2.3-1.4c-1.1-1.2-1.1-2.7-1.1-3.9c0-0.9,0-2,0-3.4
			c0-1.4,0.1-3,0.1-4.7l0.2-5.3c0.1-1.8,0.1-3.6,0.2-5.4c0.1-1.7,0.1-3.3,0.2-4.8c0-1.4,0.1-2.6,0.1-3.6c0-0.6,0-1,0-1.2
			c-0.2-1,0-2.1,0.6-3c0.5-0.7,1.4-1.7,3.1-2c0.4-0.1,0.7-0.1,1.1-0.1l0.4,0c0.5,0,1,0.1,1.5,0.2c0.2,0.1,0.5,0.1,0.7,0.2
			c0.4-0.1,0.7-0.2,1-0.3c0.3-0.1,0.7-0.1,1.1-0.1c0.5,0,1,0,1.5,0.1c0.9,0.2,1.7,0.4,2.3,0.7l0.2,0.1c1.1,0.6,2,1.6,2.7,2.8
			c0.5,0.9,0.9,2,1.2,3.2c0.1,0.6,0.2,1.2,0.3,1.9c0.1,0,0.3,0.1,0.4,0.1l2.5,1l0.1,2.8c0,0.4-0.1,0.8-0.2,1.1
			c-0.1,0.3-0.2,0.6-0.3,1.1c-0.1,0.4-0.3,0.8-0.4,1.2c-0.2,0.5-0.5,1.1-0.7,1.6c-1.2,2.2-2.4,3.9-3.7,5c-1.4,1.3-3.1,2.1-4.9,2.4
			c-0.3,0.1-0.7,0.1-1,0.2c-0.1,1.7-0.1,3.1-0.1,4.5c0,1.3,0,2.4,0,3.3c0,0.4,0,0.7,0,0.9c0.4,2.1-0.7,4-2.7,4.8
			c-0.6,0.2-1.3,0.4-2,0.4L135.4,255.2z"/>
		<path class="st9" d="M151.3,241.3c-0.3,0-0.6,0-0.8,0c-0.6-0.1-1.3-0.2-2.1-0.5c-1.1-0.4-2.2-1.2-3.1-2.3c-0.8-1-1.4-2.2-1.9-3.8
			c-0.4-1.5-0.7-3.3-0.6-5.5c0-1.9,0.2-3.5,0.5-4.9c0.3-1.4,0.8-2.6,1.3-3.6c0.6-1.1,1.3-2,2.2-2.7c0.8-0.7,1.6-1.2,2.4-1.5
			c0.8-0.3,1.5-0.5,2.2-0.5c0.5,0,0.8-0.1,1.1-0.1c0.7,0,1.3,0.1,1.9,0.3l0.3-0.1l0.5,0c0.2,0,0.5,0,0.9,0.1
			c0.6,0.1,1.2,0.2,1.8,0.4c0.9,0.3,1.6,0.8,2.3,1.5c1,1.1,1.5,2.5,1.3,4l0,0.3c0,0.2-0.1,2.4-0.1,2.4l0.1,0c0.4,0,0.9,0.1,1.3,0.3
			l2.5,1l0.1,2.8c0,0.6-0.1,1-0.3,1.7c-0.1,0.5-0.3,1.1-0.5,1.8c-0.2,0.7-0.5,1.5-0.9,2.4c-0.4,0.9-0.8,1.8-1.3,2.6
			c-0.6,0.9-1.3,1.8-2,2.4c-1.2,1-2.5,1.6-4,1.6c0,0-0.2,0-0.2,0c-0.7,0-1.4-0.2-2.1-0.5c-0.1,0-0.1,0.1-0.2,0.1
			c-0.7,0.3-1.4,0.4-2.1,0.4L151.3,241.3z"/>
		<path class="st9" d="M161.9,241.3c-0.2,0-0.5,0-0.7,0c-1-0.1-1.9-0.4-2.8-0.9c-1.5-0.9-2.4-2.6-2.3-4.4c0-0.3,0-0.8,0.1-1.5h0
			l0.1-4c0.1-1.8,0.1-3.3,0.1-4.3c0-1,0-1.9,0-2.5c0-0.6,0-1.1-0.1-1.5c0-0.4-0.1-0.8-0.2-1.3c-0.3-1.9,0.8-4.1,3.5-4.6
			c0.5-0.1,0.9-0.1,1.4-0.1c0.2,0,0.5,0,0.7,0c0.9,0.1,1.8,0.3,2.6,0.8c0.1,0,0.2,0,0.3-0.1c0.4-0.2,0.8-0.3,1.2-0.5
			c0.6-0.2,1.3-0.3,1.9-0.3l0.4,0c1.3,0.1,2.6,0.7,3.5,1.8c0.3,0.4,0.6,0.8,0.8,1.3c0.2,0.4,0.4,0.8,0.5,1.3
			c0.2,0.6,0.3,1.3,0.2,1.9c0,0.9-0.3,1.6-0.7,2.3c0,0.2-0.1,0.4-0.1,0.9c0,0.3,0,0.7,0.2,1.1c1.4,1.4,1.7,3.2,1,4.9
			c-0.4,0.8-0.9,1.5-1.6,2c-0.5,0.4-1.1,0.7-1.8,1c-0.7,0.3-1.4,0.4-2.2,0.4c-0.2,0-0.5,0-0.7,0c-0.2,0-0.4-0.1-0.7-0.1
			c0,0.1,0,0.2,0,0.3c0,0.6,0.1,1.1,0.1,1.5c0.3,1.9-0.8,4.1-3.6,4.7C162.9,241.3,162.4,241.3,161.9,241.3z"/>
		<path class="st9" d="M180,241.6c-0.5,0-1,0-1.5-0.1c-0.8-0.1-1.6-0.4-2.3-0.8c-0.4,0.3-1,0.4-1.5,0.6c-0.4,0.1-0.9,0.1-1.4,0.1
			c-0.2,0-0.5,0-0.7,0c-1-0.1-1.9-0.4-2.8-0.9c-1.6-0.9-2.4-2.6-2.3-4.4c0-0.3,0-0.8,0.1-1.5h0l0.3-8.9l0.2-9.3
			c0-1.7,0.1-3.2,0.1-4.6c0-1.4,0-2.5,0-3.5c0-0.8,0-1.4-0.1-1.7c-0.3-1.7,0.8-4,3.5-4.5c0.4-0.1,0.9-0.1,1.4-0.1c0.2,0,0.5,0,0.7,0
			c1,0.1,1.9,0.4,2.7,0.8c1.6,0.9,2.5,2.6,2.4,4.4c0,0.8,0,1.9-0.1,3.2c0,1.3-0.2,5.6-0.2,5.6c0.2,0,0.3,0,0.5,0
			c1.9,0,3.5,0.6,4.8,1.6c1.2,1,2.1,2.2,2.6,3.7c0.4,1.2,0.5,2.6,0.3,4c2.2,0.5,3.2,2.4,3.2,3.9c0,0.4,0,1-0.1,1.6
			c-0.1,0.7-0.2,1.4-0.4,2.2c-0.2,0.8-0.4,1.6-0.7,2.3c-0.3,0.9-0.8,1.8-1.4,2.5c-0.6,0.9-1.4,1.6-2.2,2.3c-1,0.8-2.2,1.2-3.5,1.4
			C181,241.5,180.5,241.6,180,241.6z"/>
		<path class="st9" d="M189.4,241.5c-0.2,0-0.4,0-0.6,0c-1.5-0.1-3-0.7-4.2-1.9c-1.1-1-1.9-2.3-2.5-4.1c-0.5-1.4-0.9-3.2-1.1-5.4
			c-0.2-2.1-0.2-4.5,0-7.3c0-0.6,0.1-1.4,0.2-2.5c0.1-1.1,0.3-2.3,0.5-3.6c0.2-1.3,0.5-2.7,0.8-4c0.3-1.5,0.7-2.8,1.2-4.1
			c0.5-1.4,1.1-2.6,1.8-3.6c1.4-2,3-2.7,4.2-2.9c0.5-0.1,1.1-0.2,1.6-0.2c1.2,0,2.3,0.3,3.2,0.9c1.2,0.8,2.1,1.9,2.6,3.4
			c0.3,1,0.6,2.1,0.6,3.3c0.1,1,0,2.1-0.1,3.2c-0.1,1-0.2,1.9-0.4,2.9c-0.2,1-0.3,1.8-0.5,2.4c-0.4,1.8-0.9,3.3-1.4,4.6
			c-0.2,0.5-0.4,0.9-0.6,1.4c0.1,0,0.1,0,0.2,0c0.5,0,1,0.1,1.5,0.3c0.8,0.3,1.5,0.8,2,1.4c1,1.2,1.2,2.7,0.8,4.1
			c-0.4,1.2-0.8,2.4-1.2,3.5c-0.5,1.3-1,2.6-1.6,3.6c-0.7,1.3-1.6,2.3-2.7,3.1C192.6,241,191.1,241.5,189.4,241.5z"/>
		<path class="st9" d="M198.4,241.4c-1.3,0-2.4-0.3-3.4-0.9c-1-0.6-1.8-1.3-2.5-2.2c-0.5-0.7-1-1.5-1.3-2.4
			c-0.3-0.8-0.5-1.5-0.7-2.3c-0.1-0.7-0.2-1.2-0.3-1.7c-0.1-0.6-0.1-1-0.1-1.2c0-0.3,0-0.8,0-1.5c0-0.7,0.1-1.6,0.2-2.5
			c0.1-0.9,0.3-1.9,0.5-2.9c0.3-1.1,0.6-2.2,1.1-3.2c0.6-1.1,1.3-2.1,2.1-2.9c1.2-1.1,2.6-1.7,4.2-1.9c0.2,0,0.4,0,0.7,0
			c1.7,0,3.2,0.6,4.4,1.7c1,0.9,1.7,2,2.2,3.3c0.4,1.1,0.7,2.3,0.8,3.5c0,0.1,0,0.3,0,0.4c1.3,0.5,2.3,1.7,2.6,3.1l0.1,0.4v0.4
			c0,0.5-0.1,0.9-0.3,1.6c-0.1,0.6-0.3,1.3-0.6,2.1c-0.3,0.8-0.6,1.6-1.1,2.5c-0.5,1-1.1,1.9-1.7,2.7c-0.7,0.9-1.6,1.7-2.6,2.4
			c-1.2,0.8-2.6,1.3-4.1,1.4C198.8,241.4,198.6,241.4,198.4,241.4z"/>
	</g>
	<g>
		<path class="st6" d="M125.5,199.3c1.8-0.1,3.4,0.1,4.9,0.6c1.5,0.5,2.7,1.2,3.7,2.1c1,0.9,1.8,2.1,2.2,3.5
			c0.5,1.4,0.6,2.9,0.5,4.6c0,0.2-0.2,0.5-0.6,0.7c-0.4,0.3-0.8,0.5-1.3,0.6c-0.5,0.2-0.9,0.3-1.2,0.3c-0.4,0-0.5,0-0.5-0.2
			c0.1-0.4,0.2-0.9,0.4-1.6c0.1-0.7,0.1-1.5,0-2.3c-0.2-0.9-0.5-1.7-1.1-2.5c-0.5-0.8-1.1-1.5-1.9-2c-0.7-0.6-1.6-1-2.5-1.3
			c-0.9-0.3-1.8-0.4-2.8-0.3c-1.3,0-2.5,0.3-3.5,0.8c-1,0.5-1.8,1.1-2.4,1.7c-0.7,0.7-1.2,1.4-1.5,2.3c-0.4,0.8-0.6,1.6-0.8,2.4
			c-0.2,0.8-0.3,1.4-0.3,2c0,0.6,0,1,0,1.2c0.3,1.4,0.8,2.7,1.6,3.7c0.8,1.1,1.8,2,3,2.9c1.1,0.9,2.3,1.7,3.6,2.4
			c1.3,0.8,2.4,1.6,3.5,2.5c1.1,0.9,2,1.9,2.8,3c0.8,1.1,1.2,2.4,1.4,4c0.1,1.6,0,2.9-0.4,4c-0.4,1.1-1.1,2-1.9,2.7
			c-0.8,0.7-1.7,1.2-2.8,1.5c-1,0.3-2.1,0.5-3.1,0.5c-1.4,0-2.6-0.1-3.6-0.5c-1-0.4-1.8-0.7-2.4-1.2c-0.8-0.5-1.4-1.1-1.9-1.7l0.6-2
			c0.7,0.7,1.5,1.4,2.3,1.9c0.7,0.5,1.5,0.9,2.5,1.3c0.9,0.4,1.9,0.5,2.9,0.5c0.3,0,0.8-0.1,1.5-0.3c0.6-0.2,1.2-0.5,1.8-1
			s1.1-1.1,1.4-2c0.4-0.8,0.5-2,0.3-3.4c-0.1-1-0.6-1.9-1.4-2.8c-0.8-0.9-1.9-1.8-3.1-2.7c-1.2-0.9-2.5-1.8-3.9-2.7
			c-1.4-0.9-2.7-1.9-3.9-3c-1.2-1.1-2.2-2.2-3-3.4c-0.8-1.2-1.3-2.6-1.3-4.1c-0.1-1.4,0-2.8,0.4-4.2c0.4-1.4,1-2.8,2-4
			c1-1.2,2.2-2.2,3.9-3C121.1,199.9,123.1,199.4,125.5,199.3z"/>
		<path class="st6" d="M140.1,218.9c0.3-0.1,0.8,0,1.3,0c0.5,0.1,1,0.2,1.3,0.4c0.4,0.3,0.8,0.7,1.2,1.3s0.6,1.4,0.8,2.2
			c0.2,0.9,0.3,1.8,0.4,2.8c0.1,1,0,2,0,3c-0.1,1-0.3,2-0.5,2.9c-0.3,0.9-0.6,1.8-1,2.5c0.7-0.7,1.4-1.6,2.2-2.8
			c0.2-0.3,0.4-0.7,0.6-1.2s0.3-0.8,0.4-1.2c0.1-0.4,0.2-0.7,0.3-0.9c0.1-0.3,0.1-0.4,0.1-0.4c0,0,0.1,0,0.2,0c0.1,0,0.2,0,0.3,0
			c0.1,0,0.2,0,0.3,0.1c0.1,0,0.1,0.1,0.1,0.1c0,0,0,0.1-0.1,0.3c0,0.2-0.1,0.4-0.2,0.7c-0.1,0.3-0.2,0.6-0.3,1
			c-0.1,0.4-0.3,0.7-0.5,1c-1,1.8-1.9,3.2-2.9,4c-0.9,0.8-2,1.3-3.1,1.5c-0.5,0.1-1,0.2-1.5,0.1c-0.5,0-0.9-0.2-1.3-0.5
			c-0.4-0.3-0.7-0.6-1-0.9c-0.1,1.8-0.1,3.5-0.2,5.2c-0.1,1.7-0.1,3.2-0.1,4.6c0,1.4,0,2.5,0,3.4c0,0.9,0,1.4,0.1,1.6
			c0.1,0.3,0,0.5-0.2,0.5c-0.2,0.1-0.5,0.1-0.8,0.1c-0.3,0-0.6-0.1-0.9-0.2c-0.3-0.1-0.5-0.2-0.6-0.3c-0.1-0.1-0.1-0.6-0.1-1.4
			c0-0.9,0-2,0-3.3c0-1.4,0.1-2.9,0.1-4.6c0.1-1.7,0.1-3.5,0.2-5.3c0.1-1.8,0.1-3.6,0.2-5.4c0.1-1.8,0.1-3.4,0.2-4.8
			c0-1.4,0.1-2.7,0.1-3.6c0-1,0-1.6,0-1.8c-0.1-0.3,0.1-0.6,0.7-0.7c0.1,0,0.3,0,0.6,0c0.3,0,0.6,0,0.8,0.1c0.3,0.1,0.5,0.2,0.7,0.3
			c0.2,0.1,0.3,0.3,0.2,0.5c0,0.1-0.1,0.2-0.1,0.4c0,0.2,0,0.4-0.1,0.6c0.5-0.7,0.9-1.1,1.4-1.4
			C139.5,219.1,139.9,218.9,140.1,218.9z M137.5,224c-0.1,1.1-0.1,2.4-0.2,3.7s-0.1,2.8-0.2,4.3l0,0.1c0.1,0.6,0.2,1.1,0.4,1.5
			c0.2,0.4,0.4,0.7,0.6,0.9c0.2,0.2,0.5,0.4,0.7,0.5c0.3,0.1,0.5,0.1,0.7,0.1c0.4,0,0.8-0.3,1.1-0.7c0.3-0.5,0.6-1,0.8-1.8
			c0.2-0.7,0.4-1.5,0.5-2.5c0.1-0.9,0.2-1.8,0.2-2.8c0-0.9,0-1.9,0-2.7c-0.1-0.9-0.2-1.7-0.3-2.4c-0.1-0.7-0.3-1.2-0.6-1.6
			c-0.2-0.4-0.5-0.6-0.9-0.5c-0.3,0-0.6,0.2-0.9,0.5c-0.3,0.3-0.6,0.6-0.8,1c-0.3,0.4-0.5,0.8-0.7,1.2
			C137.8,223.3,137.6,223.7,137.5,224z"/>
		<path class="st6" d="M155.1,219c0.1,0,0.3,0,0.6,0c0.3,0,0.6,0.1,0.9,0.2c0.3,0.1,0.5,0.3,0.8,0.5c0.2,0.2,0.3,0.5,0.3,0.9
			c0,0.1-0.1,0.5-0.1,1.2c0,0.7-0.1,1.6-0.1,2.6c-0.1,1-0.1,2.1-0.1,3.3c0,1.2-0.1,2.2-0.1,3.2c0,1,0,1.8,0,2.5c0,0.7,0.1,1,0.2,1
			c0.2,0,0.5-0.1,0.7-0.5c0.2-0.3,0.5-0.8,0.7-1.3c0.2-0.5,0.5-1.1,0.7-1.6c0.2-0.6,0.4-1.1,0.6-1.6c0.2-0.5,0.3-0.9,0.4-1.3
			c0.1-0.3,0.2-0.5,0.2-0.5c0,0,0.1,0,0.2,0c0.1,0,0.2,0,0.3,0c0.1,0,0.2,0,0.3,0.1c0.1,0,0.1,0.1,0.1,0.1c0,0-0.1,0.3-0.2,0.7
			c-0.1,0.4-0.3,1-0.5,1.6c-0.2,0.6-0.5,1.3-0.8,2.1c-0.3,0.7-0.6,1.4-1,2.1c-0.4,0.6-0.8,1.1-1.3,1.5c-0.5,0.4-0.9,0.6-1.5,0.6
			c-0.3,0-0.5-0.1-0.7-0.2c-0.2-0.1-0.4-0.3-0.5-0.5c-0.1-0.2-0.3-0.4-0.3-0.6c-0.1-0.2-0.2-0.5-0.2-0.7c-0.3,0.5-0.6,0.9-1,1.2
			c-0.4,0.3-0.7,0.5-1.1,0.6s-0.7,0.2-0.9,0.2c-0.3,0-0.5,0-0.6,0c-0.3,0-0.7-0.1-1.2-0.3c-0.5-0.2-1-0.5-1.4-1.1
			c-0.5-0.6-0.9-1.4-1.2-2.4c-0.3-1.1-0.5-2.5-0.5-4.4c0-1.6,0.2-2.9,0.4-4c0.3-1.1,0.6-2,1-2.7s0.8-1.2,1.3-1.6
			c0.5-0.4,0.9-0.7,1.3-0.8s0.8-0.3,1.1-0.3c0.3,0,0.6,0,0.7,0c0.3,0,0.6,0.1,0.8,0.2c0.2,0.1,0.5,0.3,0.7,0.5s0.4,0.4,0.5,0.6
			c0.1,0.2,0.2,0.5,0.3,0.7c0-0.5,0.1-0.9,0.1-1.2C155,219.1,155.1,219,155.1,219z M151.9,234.9c0.4,0,0.7-0.1,1-0.3
			c0.3-0.2,0.5-0.4,0.7-0.7c0.2-0.3,0.3-0.6,0.4-0.9c0.1-0.3,0.2-0.6,0.3-0.9c0-0.5,0-1.2,0-1.9c0-0.7,0.1-1.5,0.1-2.4
			c0-0.8,0.1-1.7,0.1-2.5c0.1-0.8,0.1-1.6,0.1-2.4c0,0-0.1,0-0.1-0.2c0-0.3,0-0.6-0.1-0.9c-0.1-0.3-0.3-0.6-0.5-0.8
			c-0.2-0.3-0.4-0.5-0.6-0.6c-0.2-0.2-0.5-0.3-0.7-0.3c-0.4,0-0.8,0.2-1.1,0.5c-0.3,0.3-0.6,0.7-0.8,1.2c-0.2,0.5-0.4,1-0.6,1.6
			c-0.2,0.6-0.3,1.2-0.4,1.8c-0.1,0.6-0.2,1.1-0.2,1.6c-0.1,0.5-0.1,0.9-0.1,1.2c0,0.4,0,1,0,1.8c0,0.8,0.1,1.6,0.3,2.3
			c0.1,0.8,0.4,1.4,0.7,2C150.9,234.6,151.3,234.9,151.9,234.9z"/>
		<path class="st6" d="M165.5,219.5c0.2,0,0.4-0.1,0.7-0.2s0.6-0.2,0.9-0.3c0.3-0.1,0.6-0.1,0.9-0.1c0.3,0,0.6,0.2,0.8,0.4
			c0.1,0.1,0.2,0.3,0.3,0.5c0.1,0.2,0.2,0.4,0.3,0.6c0.1,0.2,0.1,0.4,0.1,0.6c0,0.2-0.1,0.4-0.2,0.5c-0.1,0.1-0.3,0.4-0.4,1
			c-0.1,0.5-0.2,1.2-0.2,1.8c0,0.7,0.1,1.4,0.3,2.1c0.2,0.7,0.6,1.4,1.1,1.9c0.1,0.1,0.1,0.3,0,0.4c-0.1,0.2-0.2,0.4-0.4,0.5
			c-0.2,0.2-0.5,0.3-0.8,0.4c-0.3,0.1-0.6,0.2-1,0.1c-0.3,0-0.7-0.2-1-0.4c-0.3-0.3-0.6-0.7-0.9-1.2c-0.3-0.5-0.4-1.2-0.4-2
			c0-0.8,0.1-1.5,0.1-2.3c0.1-0.7,0.2-1.4,0.3-1.9c0.1-0.5,0.1-0.8,0.1-0.9c-0.1-0.1-0.2,0.1-0.4,0.3s-0.4,0.7-0.6,1.2
			c-0.2,0.5-0.5,1.2-0.7,1.9c-0.2,0.7-0.5,1.5-0.7,2.3c-0.2,0.8-0.4,1.6-0.6,2.4c-0.2,0.8-0.3,1.5-0.3,2.2c0,0.9,0,1.8,0,2.6
			c0,0.8,0.1,1.4,0.2,2c0,0.1-0.1,0.2-0.5,0.3c-0.3,0.1-0.7,0.1-1.1,0c-0.4,0-0.8-0.1-1.1-0.3c-0.3-0.2-0.5-0.5-0.4-0.9
			c0-0.1,0-0.6,0.1-1.6c0-1,0.1-2.4,0.1-4h0c0.1-1.8,0.1-3.3,0.1-4.4c0-1.1,0-2,0-2.7c0-0.7-0.1-1.3-0.1-1.7c0-0.5-0.1-1-0.2-1.5
			c0-0.1,0.1-0.2,0.4-0.3c0.3-0.1,0.7-0.1,1.1,0c0.4,0,0.7,0.1,1.1,0.3c0.3,0.2,0.5,0.5,0.5,0.9c0,1-0.1,2-0.1,2.9
			c0,0.9,0,1.8-0.1,2.7c0.2-0.8,0.4-1.5,0.7-2.2c0.3-0.7,0.5-1.4,0.8-2s0.5-1,0.7-1.4C165.2,219.7,165.4,219.5,165.5,219.5z"/>
		<path class="st6" d="M186,228c0,0.3,0,0.7-0.1,1.2c-0.1,0.5-0.2,1.1-0.3,1.7c-0.1,0.6-0.3,1.2-0.6,1.8c-0.2,0.6-0.5,1.2-0.9,1.7
			c-0.4,0.5-0.8,1-1.3,1.4c-0.5,0.4-1.1,0.6-1.8,0.7c-0.7,0.1-1.4,0.1-1.9,0c-0.6-0.1-1.1-0.4-1.6-0.8c-0.5-0.4-1-1.1-1.6-2
			c-0.5-0.9-1-2-1.6-3.5c0,1.4,0,2.7,0,3.7c0,1,0,1.7,0.1,2.1c0,0.1-0.1,0.2-0.5,0.3c-0.3,0.1-0.7,0.1-1.1,0c-0.4,0-0.8-0.1-1.1-0.3
			c-0.3-0.2-0.5-0.5-0.4-0.9c0-0.1,0-0.6,0.1-1.6c0-1,0.1-2.4,0.1-4h0c0-1.2,0.1-2.6,0.1-4.2c0-1.6,0.1-3.2,0.1-4.9
			c0-1.7,0.1-3.4,0.1-5.1c0-1.7,0.1-3.2,0.1-4.6c0-1.4,0-2.6,0-3.6c0-1-0.1-1.7-0.1-2.1c0-0.1,0.1-0.2,0.4-0.3
			c0.3-0.1,0.7-0.1,1.1,0c0.4,0,0.8,0.1,1.1,0.3c0.3,0.2,0.5,0.5,0.5,0.9c0,0.9-0.1,2-0.1,3.3c0,1.3-0.1,2.7-0.1,4.1
			c0,1.5-0.1,3-0.1,4.6c0,1.6-0.1,3.2-0.1,4.8c0.2-0.5,0.5-1,0.7-1.5c0.3-0.5,0.6-0.9,1-1.3c0.4-0.4,0.8-0.7,1.3-0.9
			c0.5-0.2,1-0.3,1.6-0.3c1,0,1.8,0.3,2.4,0.8c0.6,0.5,1,1.1,1.3,1.8c0.2,0.7,0.3,1.5,0.1,2.4c-0.1,0.9-0.5,1.8-1,2.6
			c-0.5,0.9-1.2,1.6-2,2.3c-0.8,0.7-1.9,1.2-3,1.6c0.7,1.2,1.3,2.2,1.9,2.8s1,1.2,1.5,1.5c0.5,0.3,0.9,0.4,1.3,0.2
			c0.4-0.1,0.8-0.4,1.3-0.8c0.5-0.4,0.8-1,1.1-1.7c0.3-0.7,0.5-1.4,0.6-2.1c0.1-0.7,0.3-1.2,0.3-1.7c0.1-0.5,0.1-0.7,0.2-0.7
			c0.1,0,0.2,0,0.5,0C185.9,227.8,186,227.9,186,228z M174.3,227.2c0,0.4,0,0.8,0,1.3c0,0.4,0,0.8,0,1.2c0.9-0.4,1.7-0.9,2.4-1.6
			c0.7-0.6,1.3-1.3,1.7-2c0.5-0.7,0.8-1.4,1-2.1c0.2-0.7,0.3-1.3,0.3-1.8c-0.1-0.5-0.2-0.9-0.6-1.2c-0.3-0.3-0.8-0.3-1.5-0.2
			c-0.4,0.1-0.8,0.4-1.2,0.9c-0.3,0.5-0.7,1-0.9,1.6c-0.3,0.6-0.5,1.3-0.7,2C174.6,226,174.5,226.7,174.3,227.2z"/>
		<path class="st6" d="M190.6,204.8c0.8-0.2,1.4-0.1,1.9,0.2c0.5,0.3,0.8,0.8,1,1.4c0.2,0.6,0.4,1.4,0.4,2.2c0,0.9,0,1.7-0.1,2.6
			c-0.1,0.9-0.2,1.8-0.3,2.6c-0.1,0.9-0.3,1.6-0.4,2.2c-0.4,1.6-0.8,2.9-1.2,4c-0.5,1.1-1,2.1-1.4,2.8c-0.5,0.8-1,1.4-1.4,1.9
			c-0.5,0.5-0.8,0.8-1.2,1c0,0.9-0.1,1.9,0,2.9c0,1,0.1,1.9,0.2,2.8c0.1,0.9,0.3,1.6,0.6,2.1c0.3,0.6,0.7,0.9,1.2,0.9
			c0.7,0.1,1.3-0.1,1.8-0.6c0.5-0.5,0.9-1.1,1.2-1.8c0.3-0.8,0.6-1.6,0.9-2.5c0.3-0.9,0.5-1.7,0.8-2.5c0.1-0.2,0.2-0.3,0.3-0.3
			c0.1,0,0.3,0,0.4,0c0.1,0.1,0.3,0.1,0.4,0.3c0.1,0.1,0.1,0.2,0.1,0.4c-0.4,1.2-0.8,2.4-1.2,3.5c-0.4,1.1-0.8,2.1-1.3,2.9
			c-0.5,0.8-1,1.5-1.7,2c-0.6,0.5-1.4,0.7-2.4,0.6c-0.7,0-1.3-0.3-1.9-0.9c-0.6-0.5-1.1-1.4-1.5-2.5c-0.4-1.1-0.7-2.6-0.9-4.5
			c-0.2-1.8-0.2-4.1,0-6.7c0-0.5,0.1-1.3,0.2-2.4s0.3-2.1,0.4-3.4c0.2-1.2,0.4-2.5,0.7-3.8c0.3-1.3,0.6-2.5,1.1-3.6
			c0.4-1.1,0.9-2,1.4-2.8C189.3,205.4,189.9,205,190.6,204.8z M188.2,221.8c0,0.2-0.1,0.5-0.1,0.9c-0.1,0.4-0.1,0.9-0.1,1.5
			c0.3-0.3,0.6-0.6,0.9-1c0.3-0.4,0.7-1,1-1.6c0.3-0.6,0.7-1.4,1-2.3c0.3-0.9,0.7-1.9,0.9-3.1c0.3-1.2,0.5-2.4,0.7-3.6
			c0.1-1.2,0.2-2.3,0.2-3.2c0-0.9-0.1-1.6-0.2-2.2c-0.1-0.5-0.4-0.7-0.7-0.6c-0.3,0.1-0.5,0.5-0.8,1.1c-0.3,0.6-0.5,1.4-0.7,2.3
			c-0.2,0.9-0.4,1.9-0.6,3c-0.2,1.1-0.4,2.2-0.5,3.3c-0.2,1.1-0.3,2.2-0.5,3.1C188.4,220.3,188.3,221.2,188.2,221.8z"/>
		<path class="st6" d="M198.7,218.7c0.8-0.1,1.5,0.1,2.1,0.6c0.5,0.5,1,1.2,1.3,1.9c0.3,0.8,0.5,1.6,0.6,2.5c0.1,0.9,0.1,1.7,0,2.5
			c-0.1,1.6-0.4,2.8-0.9,3.7s-1,1.6-1.5,2.1c-0.6,0.5-1.1,0.8-1.7,0.9c-0.6,0.1-1,0.2-1.4,0.2c0.3,0.8,0.6,1.3,1,1.6
			c0.4,0.3,0.7,0.4,0.9,0.3c0.5,0,1.1-0.2,1.5-0.5c0.5-0.3,0.9-0.7,1.2-1.2c0.4-0.5,0.7-1,1-1.6c0.3-0.6,0.5-1.1,0.7-1.7
			c0.2-0.5,0.4-1.1,0.5-1.5c0.1-0.5,0.2-0.8,0.3-1.1c0-0.1,0.2-0.2,0.5-0.1c0.3,0,0.4,0.1,0.5,0.3c0,0.1-0.1,0.3-0.2,0.8
			c-0.1,0.5-0.3,1-0.5,1.6c-0.2,0.6-0.5,1.3-0.9,2.1c-0.4,0.7-0.8,1.4-1.3,2c-0.5,0.6-1.1,1.1-1.7,1.6c-0.6,0.4-1.4,0.7-2.1,0.7
			c-0.7,0-1.3-0.1-1.8-0.4c-0.5-0.3-0.9-0.7-1.3-1.1c-0.3-0.5-0.6-1-0.8-1.5c-0.2-0.6-0.4-1.1-0.5-1.6c-0.1-0.5-0.2-1-0.2-1.4
			c0-0.4-0.1-0.7-0.1-0.8c0-0.3,0-0.8,0-1.4c0-0.6,0.1-1.3,0.2-2.1c0.1-0.8,0.2-1.6,0.4-2.5c0.2-0.9,0.5-1.6,0.8-2.4
			c0.4-0.7,0.8-1.3,1.3-1.8C197.3,219,198,218.7,198.7,218.7z M196.8,229.5c0,0.6,0,1.1,0,1.5c0,0.5,0.1,0.9,0.2,1.2
			c0.3,0,0.6,0,1-0.1c0.4-0.1,0.8-0.3,1.2-0.7c0.4-0.4,0.7-1,1-1.8c0.3-0.8,0.5-1.9,0.6-3.4c0.1-2.3,0-4-0.4-5
			c-0.3-1.1-0.8-1.5-1.5-1.4c-0.2,0-0.4,0.2-0.6,0.6c-0.2,0.4-0.3,0.8-0.5,1.4c-0.2,0.6-0.3,1.2-0.4,1.9c-0.1,0.7-0.2,1.4-0.3,2.1
			c-0.1,0.7-0.2,1.4-0.2,2C196.8,228.5,196.8,229.1,196.8,229.5z"/>
	</g>
</g>
<g>
	<g class="st10">
		<path class="st11" d="M76.3,272.6c-1.6,0-3-0.4-4.3-1.2c-1.2-0.7-2.3-1.7-3.2-2.8c-0.9-1.1-1.5-2.4-2.1-3.9
			c-0.5-1.4-0.8-2.9-0.9-4.4c-0.1-1.2,0-2.5,0.1-3.7c0.2-1.2,0.5-2.5,0.9-3.6c0.4-1.2,1-2.3,1.6-3.3c0.7-1.1,1.5-2,2.5-2.8
			c1-0.8,2.2-1.5,3.4-1.9c1.2-0.4,2.5-0.6,4-0.6l0.3,0c1.6,0,2.9,0.4,4.1,1.1c1.1,0.6,1.9,1.4,2.6,2.4c0.6,0.9,1.1,1.9,1.4,2.9
			c0.3,1,0.4,1.9,0.4,2.8c0,1.1-0.1,2.2-0.4,3.2c-0.3,1-0.7,1.8-1.2,2.6s-1.1,1.4-1.7,2c-0.4,0.4-0.9,0.7-1.3,1l1.1,0
			c0.6,0,1.2,0.2,1.7,0.6c0.2,0.2,0.4,0.4,0.6,0.6c0.2,0.2,0.3,0.4,0.5,0.6c0.8,1.1,0.5,2.1,0.3,2.5c-0.1,0.1-0.2,0.3-0.4,0.6
			c-0.2,0.4-0.5,0.8-0.9,1.2c-0.4,0.5-0.8,0.9-1.3,1.4c-0.6,0.5-1.2,1-2,1.4c-0.8,0.4-1.6,0.8-2.5,1.1
			C78.6,272.4,77.6,272.6,76.3,272.6L76.3,272.6z M78.6,249.7c-0.6,0-1.1,0.1-1.6,0.3c-0.5,0.2-1,0.6-1.4,1c-0.5,0.5-0.9,1-1.3,1.6
			c-0.4,0.7-0.7,1.4-1,2.2c-0.3,0.8-0.5,1.7-0.6,2.6c-0.1,0.9-0.2,1.8-0.2,2.6c0,1,0.1,2,0.4,3c0.2,0.9,0.5,1.7,0.9,2.4
			c0.4,0.6,0.8,1.1,1.3,1.4c0.4,0.3,0.8,0.4,1.3,0.4l0.2,0c0.4,0,0.9-0.1,1.3-0.2c0.4-0.1,0.9-0.3,1.3-0.5c0.4-0.3,0.8-0.6,1.2-1.1
			c0.4-0.5,0.7-1.1,1-1.8l0.3-1.1c-0.6,0.3-1.1,0.4-1.7,0.6c-0.5,0.1-1,0.2-1.4,0.2c-0.2,0-0.4,0-0.6,0c-1-0.1-1.6-0.8-1.9-1.1
			c-0.2-0.2-0.4-0.5-0.6-0.7c-0.3-0.3-0.5-0.7-0.6-1c-0.5-1.2-0.1-2.1,0.2-2.4l0.7-1l1.4,0c0.1,0,0.2,0,0.2,0l0,0
			c0.4,0,0.8-0.1,1.1-0.2c0.5-0.2,0.9-0.5,1.2-0.9c0.4-0.4,0.6-0.8,0.8-1.3c0.2-0.5,0.3-0.9,0.3-1.3c0-0.7-0.1-1.3-0.3-1.9
			c-0.1-0.4-0.3-0.8-0.5-1.1c-0.2-0.2-0.4-0.4-0.6-0.5C79.2,249.7,78.9,249.7,78.6,249.7z"/>
		<path class="st11" d="M87.9,271c-0.1,0-0.2,0-0.4,0c-1-0.1-1.9-0.4-2.7-1.1c-0.7-0.6-1.2-1.4-1.6-2.4c-0.3-0.9-0.5-1.9-0.7-3.2
			c-0.1-1.2-0.1-2.7,0-4.4c0-0.4,0.1-0.8,0.1-1.5c0.1-0.6,0.2-1.3,0.3-2.1c0.1-0.8,0.3-1.6,0.5-2.4c0.2-0.9,0.5-1.7,0.8-2.4
			c0.3-0.8,0.7-1.5,1.2-2.1c0.9-1.2,1.9-1.6,2.6-1.7c0.3-0.1,0.7-0.1,1-0.1c0.7,0,1.4,0.2,2,0.5c0.8,0.5,1.3,1.1,1.6,2
			c0.2,0.6,0.3,1.2,0.4,2c0,0.6,0,1.3,0,1.9c-0.1,0.6-0.1,1.2-0.2,1.7c-0.1,0.6-0.2,1.1-0.3,1.5c-0.3,1-0.6,2-0.9,2.7
			c-0.1,0.3-0.3,0.6-0.4,0.8c0,0,0.1,0,0.1,0c0.3,0,0.7,0.1,1,0.2c0.5,0.2,0.9,0.5,1.3,0.8c0.6,0.7,0.8,1.6,0.5,2.4
			c-0.2,0.7-0.5,1.4-0.7,2.1c-0.3,0.8-0.6,1.5-1,2.1c-0.5,0.8-1,1.4-1.7,1.9C89.9,270.7,89,271,87.9,271z"/>
		<path class="st11" d="M93.6,270.9c-0.8,0-1.5-0.2-2.2-0.5c-0.6-0.3-1.1-0.8-1.6-1.3c-0.3-0.4-0.6-0.9-0.8-1.4
			c-0.2-0.5-0.3-0.9-0.4-1.3c-0.1-0.4-0.1-0.7-0.2-1c0-0.3-0.1-0.6-0.1-0.7c0-0.2,0-0.5,0-0.9c0-0.4,0.1-0.9,0.1-1.5
			c0.1-0.5,0.2-1.1,0.3-1.7c0.2-0.7,0.4-1.3,0.7-1.9c0.4-0.7,0.8-1.3,1.3-1.7c0.7-0.6,1.6-1,2.7-1.1c0.1,0,0.3,0,0.4,0
			c1,0,2,0.3,2.7,1c0.6,0.5,1.1,1.2,1.4,2c0.3,0.7,0.5,1.4,0.5,2.1c0,0.1,0,0.2,0,0.2c0.8,0.3,1.5,1,1.6,1.9l0,0.2v0.2
			c0,0.3,0,0.5-0.2,1c-0.1,0.3-0.2,0.8-0.4,1.2c-0.2,0.5-0.4,1-0.7,1.5c-0.3,0.6-0.7,1.1-1.1,1.6c-0.5,0.6-1,1-1.6,1.4
			c-0.8,0.5-1.6,0.8-2.6,0.8C93.8,270.9,93.7,270.9,93.6,270.9z"/>
		<path class="st11" d="M100,270.9c-0.2,0-0.4,0-0.5,0c-0.4,0-0.8-0.1-1.3-0.3c-0.7-0.3-1.4-0.7-1.9-1.3c-0.5-0.6-0.9-1.3-1.2-2.3
			c-0.3-0.9-0.4-2-0.4-3.3c0-1.1,0.1-2.1,0.3-2.9c0.2-0.8,0.5-1.6,0.8-2.1c0.4-0.7,0.8-1.2,1.4-1.6c0.5-0.4,1-0.7,1.5-0.9
			c0.5-0.2,0.9-0.3,1.4-0.3c0.3,0,0.5,0,0.7,0c0.4,0,0.8,0.1,1.2,0.2l0.2,0l0.3,0c0.1,0,0.3,0,0.5,0c0.4,0,0.7,0.1,1.1,0.2
			c0.6,0.2,1,0.5,1.4,0.9c0.6,0.6,0.9,1.5,0.8,2.4l0,0.2c0,0.1-0.1,1.4-0.1,1.4l0.1,0c0.3,0,0.5,0.1,0.8,0.2l1.6,0.6l0.1,1.7
			c0,0.3-0.1,0.6-0.2,1c-0.1,0.3-0.2,0.6-0.3,1.1c-0.1,0.4-0.3,0.9-0.5,1.4c-0.2,0.6-0.5,1.1-0.8,1.6c-0.4,0.6-0.8,1-1.3,1.4
			c-0.7,0.6-1.6,0.9-2.5,0.9c0,0-0.2,0-0.2,0c-0.4,0-0.9-0.1-1.3-0.3c0,0-0.1,0-0.1,0c-0.5,0.2-0.9,0.2-1.3,0.3L100,270.9z"/>
		<path class="st11" d="M111.9,271c-0.2,0-0.4,0-0.6,0c-0.8-0.1-1.6-0.4-2.2-1c-0.4,0.4-0.9,0.7-1.6,0.9c-0.3,0.1-0.6,0.1-0.9,0.1
			c-0.1,0-0.3,0-0.4,0c-0.6,0-1.2-0.2-1.7-0.5c-1-0.5-1.5-1.5-1.4-2.6c0-0.2,0-0.5,0-0.9h0l0.1-2.4c0-1.1,0.1-1.9,0.1-2.6
			c0-0.6,0-1.1,0-1.5c0-0.4,0-0.7-0.1-0.9c0-0.2-0.1-0.5-0.1-0.8c-0.2-1.1,0.5-2.4,2.2-2.8c0.3-0.1,0.6-0.1,0.9-0.1
			c0.1,0,0.3,0,0.4,0c0.5,0,1,0.2,1.5,0.4c0,0,0,0,0,0c0.6-0.3,1.3-0.5,2.1-0.5l0.2,0c1.4,0,2.3,0.6,2.8,1.2c0.5,0.5,1,1.2,1.2,2
			c0.2,0.6,0.3,1.3,0.4,2.1c0.1,0,0.2,0,0.3,0c0.1,0,0.3,0,0.6,0c1.7,0.2,2.4,1.4,2.4,2.4c0,0.3,0,0.7-0.2,1.2
			c-0.1,0.4-0.2,0.9-0.4,1.4c-0.2,0.5-0.4,1-0.7,1.5c-0.3,0.6-0.7,1.1-1.1,1.6c-0.5,0.5-1,1-1.6,1.3
			C113.4,270.8,112.7,271,111.9,271z"/>
		<path class="st11" d="M121.1,271c-0.2,0-0.4,0-0.6,0c-0.8-0.1-1.6-0.4-2.2-1c-0.4,0.4-0.9,0.7-1.6,0.9c-0.3,0.1-0.6,0.1-0.9,0.1
			c-0.1,0-0.3,0-0.4,0c-0.6,0-1.2-0.2-1.7-0.5c-1-0.5-1.5-1.5-1.4-2.6c0-0.2,0-0.5,0-0.9h0l0.1-2.4c0-1.1,0.1-1.9,0.1-2.6
			c0-0.6,0-1.1,0-1.5c0-0.4,0-0.7-0.1-0.9c0-0.2-0.1-0.5-0.1-0.8c-0.2-1.1,0.5-2.4,2.2-2.8c0.3-0.1,0.6-0.1,0.9-0.1
			c0.1,0,0.3,0,0.4,0c0.5,0,1,0.2,1.5,0.4c0,0,0,0,0,0c0.6-0.3,1.3-0.5,2.1-0.5l0.2,0c1.4,0,2.3,0.6,2.8,1.2c0.5,0.5,1,1.2,1.2,2
			c0.2,0.6,0.3,1.3,0.4,2.1c0.1,0,0.2,0,0.3,0c0.1,0,0.3,0,0.6,0c1.7,0.2,2.4,1.4,2.4,2.4c0,0.3,0,0.7-0.2,1.2
			c-0.1,0.4-0.2,0.9-0.4,1.4c-0.2,0.5-0.4,1-0.7,1.5c-0.3,0.6-0.7,1.1-1.1,1.6c-0.5,0.5-1,1-1.6,1.3
			C122.5,270.8,121.8,271,121.1,271z"/>
		<path class="st11" d="M124.9,270.9c-0.7,0-1.5-0.3-2.1-0.8c-0.4-0.3-0.7-0.7-0.9-1.2c-0.2-0.3-0.3-0.7-0.4-1
			c-0.1-0.3-0.1-0.5-0.1-0.7c0-0.2,0-0.5,0-1.2l0-1.7c0-0.7,0-1.4,0.1-2.1c0-0.7,0.1-1.4,0.1-2c0-0.7,0.1-1.2,0.1-1.6
			c0-0.3,0.1-0.8,0.3-1.3c-0.4-0.6-0.6-1.3-0.6-2.1c0-0.9,0.3-1.8,0.9-2.5c0.7-0.9,1.7-1.3,2.8-1.3c1.1,0,2.1,0.5,2.8,1.4
			c0.6,0.7,0.8,1.6,0.8,2.5c0,0.9-0.3,1.8-0.8,2.5c0,0,0,0,0,0c0.3,0.5,0.4,1,0.3,1.6l0,0.2l0,0.1c0,0.1-0.1,1.1-0.1,1.4l0.1,0
			c0.3,0,0.5,0.1,0.8,0.2l1.6,0.6l0.1,1.7c0,0.3-0.1,0.6-0.2,1c-0.1,0.3-0.2,0.7-0.3,1.1c-0.1,0.4-0.3,0.9-0.5,1.4
			c-0.2,0.6-0.5,1.1-0.8,1.6c-0.4,0.6-0.8,1-1.3,1.4c-0.9,0.8-1.9,0.9-2.5,0.9C125,270.9,124.9,270.9,124.9,270.9z"/>
		<path class="st11" d="M133.7,271c-0.2,0-0.4,0-0.6,0c-0.8-0.1-1.6-0.4-2.2-1c-0.4,0.4-0.9,0.7-1.6,0.9c-0.3,0.1-0.6,0.1-0.9,0.1
			c-0.1,0-0.3,0-0.4,0c-0.6,0-1.2-0.2-1.7-0.5c-1-0.5-1.5-1.5-1.4-2.6c0-0.2,0-0.5,0-0.9h0l0.1-2.4c0-1.1,0.1-1.9,0.1-2.6
			c0-0.6,0-1.1,0-1.5c0-0.4,0-0.7-0.1-0.9c0-0.2-0.1-0.5-0.1-0.8c-0.2-1.1,0.5-2.4,2.2-2.8c0.3-0.1,0.6-0.1,0.9-0.1
			c0.1,0,0.3,0,0.4,0c0.5,0,1,0.2,1.5,0.4c0,0,0,0,0,0c0.6-0.3,1.3-0.5,2.1-0.5l0.2,0c1.4,0,2.3,0.6,2.8,1.2c0.5,0.5,1,1.2,1.2,2
			c0.2,0.6,0.3,1.3,0.4,2.1c0.1,0,0.2,0,0.3,0c0.1,0,0.3,0,0.6,0c1.7,0.2,2.4,1.4,2.4,2.4c0,0.3,0,0.7-0.2,1.2
			c-0.1,0.4-0.2,0.9-0.4,1.4c-0.2,0.5-0.4,1-0.7,1.5c-0.3,0.6-0.7,1.1-1.1,1.6c-0.5,0.5-1,1-1.6,1.3
			C135.2,270.8,134.5,271,133.7,271z"/>
		<path class="st11" d="M139,277.7c-0.9,0-1.8-0.2-2.5-0.6c-0.7-0.4-1.2-0.9-1.6-1.5c-0.4-0.5-0.6-1.1-0.8-1.7
			c-0.1-0.5-0.2-1-0.2-1.4c0-0.5,0-0.8,0-1.2c0-0.4,0.1-0.7,0.2-1c0.1-0.4,0.5-1.1,1.3-1.5c-0.3-0.5-0.6-1.1-0.9-1.8
			c-0.3-0.9-0.4-2-0.4-3.3c0-1.1,0.1-2.1,0.3-2.9c0.2-0.8,0.5-1.6,0.8-2.1c0.4-0.7,0.8-1.2,1.4-1.6c0.5-0.4,1-0.7,1.5-0.9
			c0.5-0.2,0.9-0.3,1.4-0.3c0.3,0,0.5,0,0.7,0c0,0,0.1,0,0.1,0c0.4-0.2,0.8-0.3,1.4-0.3l0.2,0c0.4,0,0.7,0.1,1.1,0.2
			c0.4,0.1,0.8,0.3,1.1,0.5c1.2,0.7,1.4,1.7,1.4,2.2l0,2.7c0,0.8,0,1.7,0,2.7c0,1,0,2-0.1,3.1c0,1.1-0.1,2.1-0.2,3.1
			c-0.1,1-0.2,2-0.4,2.8c-0.2,0.9-0.5,1.7-0.9,2.4c-0.4,0.7-1,1.2-1.5,1.6c-0.6,0.4-1.2,0.6-1.9,0.8
			C140,277.7,139.5,277.7,139,277.7v-2.3V277.7z"/>
	</g>
	<g>
		<path class="st9" d="M78.7,246.5c1.1,0,2.1,0.3,2.8,0.7c0.8,0.5,1.4,1,1.9,1.7c0.5,0.7,0.8,1.4,1,2.2c0.2,0.8,0.3,1.5,0.3,2.3
			c0,0.9-0.1,1.7-0.3,2.5c-0.2,0.8-0.5,1.4-0.9,2c-0.4,0.6-0.8,1.1-1.3,1.5c-0.5,0.4-1,0.7-1.5,1c-0.5,0.3-1,0.4-1.5,0.5
			c-0.5,0.1-0.9,0.1-1.2,0.1c0,0-0.1-0.1-0.3-0.3c-0.2-0.2-0.3-0.4-0.5-0.6c-0.2-0.2-0.3-0.4-0.4-0.6c-0.1-0.2,0-0.3,0.1-0.2
			c0.9,0,1.7-0.1,2.5-0.5c0.8-0.4,1.4-0.8,2-1.4c0.6-0.6,1-1.2,1.3-2c0.3-0.7,0.5-1.5,0.4-2.2c0-0.9-0.1-1.7-0.3-2.5
			c-0.2-0.7-0.5-1.4-0.9-1.9c-0.4-0.5-0.9-0.9-1.5-1.2c-0.6-0.3-1.2-0.4-2-0.4c-0.9,0-1.8,0.2-2.6,0.5c-0.8,0.4-1.5,0.8-2.1,1.4
			c-0.6,0.6-1.2,1.3-1.6,2.2c-0.5,0.8-0.9,1.7-1.2,2.6c-0.3,0.9-0.5,1.9-0.7,2.9c-0.2,1-0.2,2-0.2,3c0,1.2,0.1,2.3,0.4,3.4
			c0.3,1.1,0.6,2.1,1.2,3c0.5,0.9,1.2,1.6,1.9,2.1c0.8,0.5,1.6,0.8,2.7,0.9c0.7,0,1.5,0,2.2-0.2c0.7-0.2,1.4-0.5,2-0.9
			c0.6-0.4,1.2-0.9,1.8-1.6c0.5-0.7,1-1.5,1.4-2.5c0,0,0.1,0,0.2,0c0.1,0.1,0.2,0.2,0.3,0.3c0.1,0.1,0.2,0.2,0.3,0.4
			c0.1,0.1,0.1,0.2,0.1,0.2c0,0.1-0.1,0.2-0.3,0.5c-0.2,0.3-0.4,0.6-0.7,1c-0.3,0.4-0.7,0.8-1.1,1.2c-0.4,0.4-1,0.8-1.5,1.1
			c-0.6,0.3-1.3,0.6-2,0.9c-0.7,0.2-1.6,0.3-2.4,0.3c-1.1,0-2.2-0.3-3.1-0.8c-1-0.6-1.8-1.3-2.5-2.2s-1.3-2-1.7-3.2
			c-0.4-1.2-0.7-2.5-0.8-3.8c-0.1-1.1,0-2.2,0.1-3.3c0.1-1.1,0.4-2.2,0.8-3.2c0.4-1,0.8-2,1.4-2.9c0.6-0.9,1.2-1.6,2-2.3
			c0.8-0.7,1.7-1.2,2.7-1.5C76.3,246.6,77.4,246.5,78.7,246.5z"/>
		<path class="st9" d="M88.6,249.8c0.5-0.1,0.9-0.1,1.2,0.1c0.3,0.2,0.5,0.5,0.7,0.8c0.1,0.4,0.2,0.8,0.2,1.3c0,0.5,0,1,0,1.6
			c-0.1,0.5-0.1,1-0.2,1.6c-0.1,0.5-0.2,0.9-0.3,1.3c-0.2,0.9-0.5,1.7-0.8,2.4c-0.3,0.7-0.6,1.2-0.9,1.7c-0.3,0.5-0.6,0.8-0.9,1.1
			c-0.3,0.3-0.5,0.5-0.7,0.6c0,0.6,0,1.1,0,1.7c0,0.6,0.1,1.1,0.1,1.7c0.1,0.5,0.2,0.9,0.4,1.3c0.2,0.3,0.4,0.5,0.7,0.5
			c0.5,0.1,0.8-0.1,1.1-0.3c0.3-0.3,0.6-0.6,0.8-1.1c0.2-0.5,0.4-0.9,0.6-1.5c0.2-0.5,0.3-1,0.5-1.5c0-0.1,0.1-0.2,0.2-0.2
			s0.2,0,0.3,0s0.2,0.1,0.2,0.2c0.1,0.1,0.1,0.1,0,0.2c-0.3,0.7-0.5,1.4-0.7,2.1c-0.2,0.7-0.5,1.2-0.8,1.7c-0.3,0.5-0.6,0.9-1.1,1.2
			c-0.4,0.3-0.9,0.4-1.5,0.4c-0.4,0-0.8-0.2-1.2-0.5c-0.4-0.3-0.7-0.8-0.9-1.5c-0.3-0.7-0.4-1.6-0.5-2.6c-0.1-1.1-0.1-2.4,0-4
			c0-0.3,0.1-0.8,0.1-1.4s0.2-1.3,0.3-2c0.1-0.7,0.3-1.5,0.5-2.2c0.2-0.8,0.4-1.5,0.7-2.1c0.3-0.6,0.6-1.2,0.9-1.6
			C87.9,250.2,88.2,249.9,88.6,249.8z M87.1,259.9c0,0.1-0.1,0.3-0.1,0.5s-0.1,0.5-0.1,0.9c0.2-0.2,0.4-0.4,0.6-0.6
			c0.2-0.3,0.4-0.6,0.6-1c0.2-0.4,0.4-0.8,0.6-1.4c0.2-0.5,0.4-1.1,0.6-1.8c0.2-0.7,0.3-1.4,0.4-2.2s0.1-1.3,0.1-1.9
			c0-0.5,0-1-0.1-1.3c-0.1-0.3-0.2-0.4-0.4-0.4c-0.2,0.1-0.3,0.3-0.5,0.6c-0.2,0.4-0.3,0.8-0.5,1.4c-0.1,0.5-0.3,1.1-0.4,1.8
			c-0.1,0.7-0.2,1.3-0.3,2c-0.1,0.7-0.2,1.3-0.3,1.9C87.3,259,87.2,259.5,87.1,259.9z"/>
		<path class="st9" d="M93.7,258.1c0.5-0.1,1,0.1,1.3,0.4c0.3,0.3,0.6,0.7,0.8,1.1c0.2,0.5,0.3,1,0.4,1.5c0.1,0.5,0.1,1,0,1.5
			c-0.1,0.9-0.3,1.7-0.6,2.2c-0.3,0.5-0.6,0.9-1,1.2c-0.4,0.3-0.7,0.5-1.1,0.5c-0.4,0.1-0.6,0.1-0.9,0.1c0.2,0.5,0.4,0.8,0.7,0.9
			c0.3,0.2,0.4,0.2,0.6,0.2c0.3,0,0.7-0.1,1-0.3c0.3-0.2,0.6-0.4,0.8-0.7s0.4-0.6,0.6-0.9c0.2-0.3,0.3-0.7,0.5-1
			c0.1-0.3,0.2-0.6,0.3-0.9c0.1-0.3,0.1-0.5,0.2-0.7c0-0.1,0.1-0.1,0.3-0.1c0.2,0,0.3,0.1,0.3,0.2c0,0,0,0.2-0.1,0.5
			c-0.1,0.3-0.2,0.6-0.3,1c-0.1,0.4-0.3,0.8-0.6,1.2c-0.2,0.4-0.5,0.8-0.8,1.2c-0.3,0.4-0.7,0.7-1.1,0.9c-0.4,0.3-0.8,0.4-1.3,0.4
			c-0.4,0-0.8,0-1.1-0.2c-0.3-0.2-0.6-0.4-0.8-0.7s-0.4-0.6-0.5-0.9c-0.1-0.3-0.2-0.7-0.3-1c-0.1-0.3-0.1-0.6-0.1-0.8
			c0-0.2,0-0.4,0-0.5c0-0.2,0-0.5,0-0.8c0-0.4,0-0.8,0.1-1.3c0.1-0.5,0.2-1,0.3-1.5c0.1-0.5,0.3-1,0.5-1.4c0.2-0.4,0.5-0.8,0.8-1.1
			C92.9,258.3,93.3,258.1,93.7,258.1z M92.5,264.5c0,0.3,0,0.6,0,0.9c0,0.3,0.1,0.5,0.1,0.7c0.2,0,0.4,0,0.6-0.1
			c0.2-0.1,0.5-0.2,0.7-0.4c0.2-0.2,0.5-0.6,0.6-1.1c0.2-0.5,0.3-1.1,0.4-2c0.1-1.4,0-2.4-0.2-3c-0.2-0.6-0.5-0.9-1-0.8
			c-0.1,0-0.3,0.1-0.4,0.4c-0.1,0.2-0.2,0.5-0.3,0.8c-0.1,0.3-0.2,0.7-0.3,1.1c-0.1,0.4-0.1,0.8-0.2,1.2c-0.1,0.4-0.1,0.8-0.1,1.2
			C92.5,263.9,92.5,264.2,92.5,264.5z"/>
		<path class="st9" d="M102.4,258.2c0.1,0,0.2,0,0.4,0c0.2,0,0.4,0.1,0.6,0.1c0.2,0.1,0.3,0.2,0.5,0.3c0.1,0.1,0.2,0.3,0.2,0.5
			c0,0.1,0,0.3-0.1,0.7c0,0.4-0.1,0.9-0.1,1.5c0,0.6-0.1,1.3-0.1,1.9c0,0.7,0,1.3-0.1,1.9c0,0.6,0,1.1,0,1.5c0,0.4,0,0.6,0.1,0.6
			c0.1,0,0.3-0.1,0.4-0.3c0.2-0.2,0.3-0.5,0.4-0.8c0.1-0.3,0.3-0.6,0.4-1c0.1-0.4,0.2-0.7,0.3-1c0.1-0.3,0.2-0.6,0.2-0.8
			c0.1-0.2,0.1-0.3,0.1-0.3c0,0,0,0,0.1,0c0.1,0,0.1,0,0.2,0c0.1,0,0.1,0,0.2,0c0.1,0,0.1,0,0.1,0.1c0,0,0,0.2-0.1,0.4
			c-0.1,0.3-0.2,0.6-0.3,1c-0.1,0.4-0.3,0.8-0.5,1.2c-0.2,0.4-0.4,0.9-0.6,1.2c-0.2,0.4-0.5,0.7-0.8,0.9c-0.3,0.2-0.6,0.4-0.9,0.3
			c-0.2,0-0.3,0-0.4-0.1c-0.1-0.1-0.2-0.2-0.3-0.3c-0.1-0.1-0.2-0.2-0.2-0.4c-0.1-0.1-0.1-0.3-0.1-0.4c-0.2,0.3-0.4,0.5-0.6,0.7
			c-0.2,0.2-0.4,0.3-0.7,0.4s-0.4,0.1-0.6,0.1c-0.2,0-0.3,0-0.4,0c-0.2,0-0.4-0.1-0.7-0.2c-0.3-0.1-0.6-0.3-0.9-0.7
			c-0.3-0.3-0.5-0.8-0.7-1.5c-0.2-0.6-0.3-1.5-0.3-2.6c0-0.9,0.1-1.7,0.3-2.4c0.2-0.6,0.4-1.2,0.6-1.6s0.5-0.7,0.8-1
			c0.3-0.2,0.6-0.4,0.8-0.5c0.3-0.1,0.5-0.2,0.7-0.2c0.2,0,0.4,0,0.4,0c0.2,0,0.4,0,0.5,0.1c0.2,0.1,0.3,0.2,0.4,0.3
			c0.1,0.1,0.2,0.2,0.3,0.4c0.1,0.1,0.2,0.3,0.2,0.4c0-0.3,0.1-0.6,0.1-0.7C102.3,258.3,102.4,258.2,102.4,258.2z M100.4,267.7
			c0.3,0,0.5-0.1,0.6-0.2c0.2-0.1,0.3-0.3,0.4-0.4c0.1-0.2,0.2-0.4,0.3-0.5s0.1-0.4,0.2-0.6c0-0.3,0-0.7,0-1.2c0-0.4,0-0.9,0.1-1.4
			c0-0.5,0-1,0.1-1.5c0-0.5,0.1-1,0.1-1.4c0,0,0,0,0-0.1c0-0.2,0-0.3-0.1-0.5c-0.1-0.2-0.2-0.3-0.3-0.5c-0.1-0.1-0.3-0.3-0.4-0.4
			c-0.1-0.1-0.3-0.2-0.4-0.2c-0.3,0-0.5,0.1-0.7,0.3c-0.2,0.2-0.4,0.4-0.5,0.7c-0.1,0.3-0.3,0.6-0.4,1c-0.1,0.4-0.2,0.7-0.2,1.1
			c-0.1,0.4-0.1,0.7-0.1,1c0,0.3-0.1,0.5-0.1,0.7c0,0.3,0,0.6,0,1.1s0.1,0.9,0.2,1.4c0.1,0.5,0.2,0.9,0.4,1.2
			C99.7,267.5,100,267.7,100.4,267.7z"/>
		<path class="st9" d="M107.3,260.6c0.1-0.3,0.3-0.6,0.4-0.9c0.2-0.3,0.4-0.6,0.6-0.8c0.2-0.2,0.5-0.4,0.8-0.6
			c0.3-0.2,0.7-0.2,1-0.2c0.5,0,0.9,0.2,1.2,0.4c0.3,0.3,0.5,0.6,0.6,1.1s0.2,1,0.3,1.5c0,0.6,0,1.2,0,1.7c0,0.6-0.1,1.2-0.1,1.8
			s-0.1,1.1-0.1,1.5c0,0.5,0,0.8,0,1.1c0,0.3,0.1,0.4,0.3,0.5c0.3,0,0.5,0,0.8-0.3c0.2-0.2,0.4-0.5,0.6-0.8c0.2-0.3,0.4-0.7,0.5-1.1
			c0.2-0.4,0.3-0.8,0.4-1.1c0.1-0.3,0.2-0.6,0.3-0.9c0.1-0.2,0.1-0.3,0.2-0.3c0,0,0.1,0,0.3,0c0.2,0,0.2,0.1,0.2,0.1
			c0,0.2,0,0.5-0.1,0.8c-0.1,0.3-0.2,0.7-0.3,1.1c-0.2,0.4-0.3,0.8-0.6,1.2c-0.2,0.4-0.5,0.8-0.8,1.1c-0.3,0.3-0.6,0.6-1,0.8
			c-0.4,0.2-0.8,0.3-1.2,0.2c-0.4,0-0.7-0.2-0.9-0.5c-0.2-0.3-0.3-0.7-0.4-1.1c-0.1-0.5-0.1-1-0.1-1.6c0-0.6,0-1.2,0.1-1.8
			c0-0.6,0.1-1.2,0.1-1.7c0-0.6,0-1-0.1-1.5c-0.1-0.4-0.2-0.7-0.4-1c-0.2-0.2-0.5-0.3-0.9-0.3c-0.3,0.1-0.6,0.3-0.8,0.6
			c-0.2,0.4-0.4,0.7-0.5,1.2c-0.1,0.4-0.3,0.9-0.3,1.3c-0.1,0.4-0.2,0.7-0.2,0.9c0,1.1,0,2.1,0,3c0,0.9,0.1,1.6,0.1,2.1
			c0,0.1-0.1,0.1-0.3,0.2c-0.2,0-0.4,0-0.7,0c-0.3,0-0.5-0.1-0.7-0.2c-0.2-0.1-0.3-0.3-0.3-0.5c0,0,0-0.4,0-1c0-0.6,0.1-1.4,0.1-2.4
			h0c0-1.1,0.1-2,0.1-2.6c0-0.7,0-1.2,0-1.6c0-0.4,0-0.8-0.1-1c0-0.3-0.1-0.6-0.1-0.9c0-0.1,0.1-0.1,0.3-0.2c0.2,0,0.4,0,0.7,0
			c0.2,0,0.5,0.1,0.7,0.2c0.2,0.1,0.3,0.3,0.3,0.5L107.3,260.6z"/>
		<path class="st9" d="M116.5,260.6c0.1-0.3,0.3-0.6,0.4-0.9c0.2-0.3,0.4-0.6,0.6-0.8c0.2-0.2,0.5-0.4,0.8-0.6
			c0.3-0.2,0.7-0.2,1-0.2c0.5,0,0.9,0.2,1.2,0.4c0.3,0.3,0.5,0.6,0.6,1.1s0.2,1,0.3,1.5c0,0.6,0,1.2,0,1.7c0,0.6-0.1,1.2-0.1,1.8
			c-0.1,0.6-0.1,1.1-0.1,1.5c0,0.5,0,0.8,0,1.1c0,0.3,0.1,0.4,0.3,0.5c0.3,0,0.5,0,0.8-0.3c0.2-0.2,0.4-0.5,0.6-0.8
			c0.2-0.3,0.4-0.7,0.5-1.1c0.2-0.4,0.3-0.8,0.4-1.1c0.1-0.3,0.2-0.6,0.3-0.9c0.1-0.2,0.1-0.3,0.2-0.3c0,0,0.1,0,0.3,0
			c0.2,0,0.2,0.1,0.2,0.1c0,0.2,0,0.5-0.1,0.8c-0.1,0.3-0.2,0.7-0.3,1.1c-0.2,0.4-0.3,0.8-0.6,1.2c-0.2,0.4-0.5,0.8-0.8,1.1
			c-0.3,0.3-0.6,0.6-1,0.8c-0.4,0.2-0.8,0.3-1.2,0.2c-0.4,0-0.7-0.2-0.9-0.5c-0.2-0.3-0.3-0.7-0.4-1.1c-0.1-0.5-0.1-1-0.1-1.6
			c0-0.6,0-1.2,0.1-1.8c0-0.6,0.1-1.2,0.1-1.7c0-0.6,0-1-0.1-1.5c-0.1-0.4-0.2-0.7-0.4-1c-0.2-0.2-0.5-0.3-0.9-0.3
			c-0.3,0.1-0.6,0.3-0.8,0.6c-0.2,0.4-0.4,0.7-0.5,1.2c-0.1,0.4-0.3,0.9-0.3,1.3c-0.1,0.4-0.2,0.7-0.2,0.9c0,1.1,0,2.1,0,3
			c0,0.9,0.1,1.6,0.1,2.1c0,0.1-0.1,0.1-0.3,0.2c-0.2,0-0.4,0-0.7,0c-0.3,0-0.5-0.1-0.7-0.2c-0.2-0.1-0.3-0.3-0.3-0.5c0,0,0-0.4,0-1
			c0-0.6,0.1-1.4,0.1-2.4h0c0-1.1,0.1-2,0.1-2.6c0-0.7,0-1.2,0-1.6c0-0.4,0-0.8-0.1-1c0-0.3-0.1-0.6-0.1-0.9c0-0.1,0.1-0.1,0.3-0.2
			c0.2,0,0.4,0,0.7,0c0.2,0,0.5,0.1,0.7,0.2c0.2,0.1,0.3,0.3,0.3,0.5L116.5,260.6z"/>
		<path class="st9" d="M124.2,258.2c0.1,0,0.2,0,0.4,0c0.2,0,0.4,0.1,0.5,0.1c0.2,0.1,0.3,0.2,0.5,0.3c0.1,0.1,0.2,0.3,0.2,0.5
			c0,0.1,0,0.3-0.1,0.7c0,0.4-0.1,0.9-0.1,1.5c0,0.6-0.1,1.3-0.1,1.9c0,0.7-0.1,1.3-0.1,1.9c0,0.6,0,1.1,0,1.5
			c0,0.4,0.1,0.6,0.1,0.6c0.1,0,0.3-0.1,0.4-0.3c0.2-0.2,0.3-0.5,0.4-0.8c0.1-0.3,0.3-0.6,0.4-1c0.1-0.4,0.2-0.7,0.3-1
			c0.1-0.3,0.2-0.6,0.2-0.8c0.1-0.2,0.1-0.3,0.1-0.3c0,0,0,0,0.1,0c0.1,0,0.1,0,0.2,0c0.1,0,0.1,0,0.2,0c0.1,0,0.1,0,0.1,0.1
			c0,0,0,0.2-0.1,0.4c-0.1,0.3-0.2,0.6-0.3,1c-0.1,0.4-0.3,0.8-0.5,1.2s-0.4,0.9-0.6,1.2c-0.2,0.4-0.5,0.7-0.8,0.9
			c-0.3,0.2-0.6,0.4-0.9,0.3c-0.2,0-0.4-0.1-0.6-0.2c-0.2-0.1-0.3-0.3-0.4-0.5c-0.1-0.2-0.2-0.4-0.2-0.5c0-0.2-0.1-0.3-0.1-0.5
			c0-0.1,0-0.3,0-0.8c0-0.5,0-1,0-1.7c0-0.6,0-1.3,0.1-2.1c0-0.7,0.1-1.4,0.1-2c0-0.6,0.1-1.1,0.1-1.5
			C124.2,258.4,124.2,258.2,124.2,258.2z M123.9,255.2c0-0.4,0.1-0.8,0.4-1.1c0.2-0.3,0.5-0.5,0.9-0.5c0.3,0,0.6,0.1,0.9,0.5
			s0.4,0.7,0.4,1.1s-0.1,0.8-0.4,1.1s-0.5,0.5-0.9,0.5c-0.3,0-0.6-0.1-0.9-0.5C124,256,123.9,255.7,123.9,255.2z"/>
		<path class="st9" d="M129.1,260.6c0.1-0.3,0.3-0.6,0.4-0.9c0.2-0.3,0.4-0.6,0.6-0.8c0.2-0.2,0.5-0.4,0.8-0.6
			c0.3-0.2,0.7-0.2,1-0.2c0.5,0,0.9,0.2,1.2,0.4c0.3,0.3,0.5,0.6,0.6,1.1c0.1,0.5,0.2,1,0.3,1.5c0,0.6,0,1.2,0,1.7
			c0,0.6-0.1,1.2-0.1,1.8c-0.1,0.6-0.1,1.1-0.1,1.5c0,0.5,0,0.8,0,1.1c0,0.3,0.1,0.4,0.3,0.5c0.3,0,0.5,0,0.8-0.3
			c0.2-0.2,0.4-0.5,0.6-0.8c0.2-0.3,0.4-0.7,0.5-1.1c0.2-0.4,0.3-0.8,0.4-1.1c0.1-0.3,0.2-0.6,0.3-0.9c0.1-0.2,0.1-0.3,0.2-0.3
			c0,0,0.1,0,0.3,0c0.2,0,0.2,0.1,0.2,0.1c0,0.2,0,0.5-0.1,0.8c-0.1,0.3-0.2,0.7-0.3,1.1c-0.2,0.4-0.3,0.8-0.6,1.2
			c-0.2,0.4-0.5,0.8-0.8,1.1s-0.6,0.6-1,0.8c-0.4,0.2-0.8,0.3-1.2,0.2c-0.4,0-0.7-0.2-0.9-0.5c-0.2-0.3-0.3-0.7-0.4-1.1
			c-0.1-0.5-0.1-1-0.1-1.6c0-0.6,0-1.2,0.1-1.8c0-0.6,0.1-1.2,0.1-1.7c0-0.6,0-1-0.1-1.5c-0.1-0.4-0.2-0.7-0.4-1
			c-0.2-0.2-0.5-0.3-0.9-0.3c-0.3,0.1-0.6,0.3-0.8,0.6c-0.2,0.4-0.4,0.7-0.5,1.2c-0.1,0.4-0.3,0.9-0.3,1.3c-0.1,0.4-0.2,0.7-0.2,0.9
			c0,1.1,0,2.1,0,3c0,0.9,0.1,1.6,0.1,2.1c0,0.1-0.1,0.1-0.3,0.2c-0.2,0-0.4,0-0.7,0c-0.3,0-0.5-0.1-0.7-0.2
			c-0.2-0.1-0.3-0.3-0.3-0.5c0,0,0-0.4,0-1c0-0.6,0.1-1.4,0.1-2.4h0c0-1.1,0.1-2,0.1-2.6c0-0.7,0-1.2,0-1.6c0-0.4,0-0.8-0.1-1
			c0-0.3-0.1-0.6-0.1-0.9c0-0.1,0.1-0.1,0.3-0.2c0.2,0,0.4,0,0.7,0c0.2,0,0.5,0.1,0.7,0.2c0.2,0.1,0.3,0.3,0.3,0.5L129.1,260.6z"/>
		<path class="st9" d="M141.4,257.8c0-0.1,0.1-0.1,0.3-0.1s0.4,0.1,0.6,0.1c0.2,0.1,0.4,0.1,0.6,0.3c0.2,0.1,0.3,0.2,0.2,0.3
			c0,0.1,0,0.3,0,0.8c0,0.5,0,1.1,0,1.9c0,0.8,0,1.7,0,2.7s0,2-0.1,3c0,1-0.1,2-0.2,3c-0.1,1-0.2,1.8-0.3,2.6
			c-0.1,0.6-0.3,1.2-0.6,1.6c-0.3,0.4-0.5,0.7-0.9,0.9c-0.3,0.2-0.7,0.4-1,0.4c-0.4,0.1-0.7,0.1-1,0.1c-0.5,0-0.9-0.1-1.3-0.3
			c-0.3-0.2-0.6-0.5-0.8-0.8c-0.2-0.3-0.4-0.6-0.5-1c-0.1-0.4-0.2-0.7-0.2-1.1c0-0.3,0-0.6,0-0.9c0-0.2,0-0.4,0.1-0.5
			c0-0.1,0.1-0.2,0.3-0.3c0.2-0.1,0.4-0.2,0.6-0.2c0.2-0.1,0.4-0.1,0.6-0.1c0.2,0,0.3,0,0.2,0.1c-0.1,0.5-0.2,1.1-0.2,1.6
			c0,0.5,0,1,0.1,1.4c0.1,0.4,0.2,0.7,0.5,1c0.2,0.2,0.6,0.4,1.1,0.3c0.3,0,0.5-0.2,0.7-0.6c0.2-0.4,0.4-0.9,0.5-1.6
			c0.1-0.7,0.2-1.4,0.3-2.3s0.1-1.8,0.2-2.7c-0.2,0.3-0.4,0.5-0.6,0.6c-0.2,0.1-0.4,0.2-0.6,0.3s-0.4,0.1-0.6,0.1
			c-0.2,0-0.3,0-0.4,0c-0.2,0-0.4-0.1-0.7-0.2c-0.3-0.1-0.6-0.3-0.9-0.7c-0.3-0.3-0.5-0.8-0.7-1.5c-0.2-0.6-0.3-1.5-0.3-2.6
			c0-0.9,0.1-1.7,0.3-2.4c0.2-0.6,0.4-1.2,0.6-1.6c0.2-0.4,0.5-0.7,0.8-1c0.3-0.2,0.6-0.4,0.8-0.5c0.3-0.1,0.5-0.2,0.7-0.2
			c0.2,0,0.4,0,0.4,0c0.3,0,0.6,0.1,0.8,0.3s0.3,0.4,0.4,0.6c0-0.3,0-0.5,0-0.6C141.4,258.1,141.4,258,141.4,257.8z M141.3,266
			C141.3,266,141.3,265.9,141.3,266C141.3,265.9,141.3,265.9,141.3,266c0.1-1.1,0.1-2,0.1-3c0-1,0-1.8,0-2.6
			c-0.1,0.1-0.1,0.1-0.1-0.1c0-0.2,0-0.3-0.1-0.5c-0.1-0.2-0.1-0.3-0.2-0.5c-0.1-0.1-0.2-0.3-0.3-0.4c-0.1-0.1-0.3-0.1-0.4-0.1
			c-0.3,0-0.5,0.1-0.7,0.3c-0.2,0.2-0.4,0.4-0.5,0.7c-0.1,0.3-0.3,0.6-0.4,1c-0.1,0.4-0.2,0.7-0.2,1.1c-0.1,0.4-0.1,0.7-0.1,1
			s-0.1,0.5-0.1,0.7c0,0.3,0,0.6,0,1.1c0,0.5,0.1,0.9,0.2,1.4c0.1,0.5,0.2,0.9,0.4,1.2c0.2,0.3,0.5,0.5,0.8,0.5
			c0.3,0,0.5-0.1,0.6-0.2c0.2-0.1,0.3-0.3,0.4-0.4c0.1-0.2,0.2-0.4,0.3-0.5C141.2,266.3,141.2,266.1,141.3,266z"/>
	</g>
</g>
<g>
	<g class="st10">
		<path class="st11" d="M154.4,275.5c-1,0-2-0.1-2.8-0.4c-0.8-0.3-1.5-0.6-2.1-0.9c-0.7-0.4-1.3-1-1.7-1.5l-0.7-0.9l1.8-6.2l2.9,2.9
			c0.3,0.3,0.6,0.6,1,0.8c0.3,0.2,0.7,0.4,1.1,0.6c0.2,0.1,0.4,0.1,0.6,0.1l0.1,0c0.1,0,0.3,0,0.4-0.1c0.1,0,0.1-0.1,0.2-0.1
			c0,0,0.1-0.1,0.2-0.3l0,0c0,0,0.1-0.2,0-0.8c0,0-0.1-0.2-0.2-0.3c-0.4-0.4-1-0.9-1.6-1.3c-0.7-0.5-1.5-1-2.4-1.6
			c-1-0.6-1.8-1.3-2.7-2c-0.9-0.8-1.7-1.6-2.3-2.5c-0.7-1.1-1.2-2.3-1.2-3.6c-0.1-1,0-2.1,0.3-3.2c0.3-1.2,0.9-2.3,1.7-3.2
			c0.8-1,1.9-1.8,3.2-2.4c1.3-0.6,2.9-1,4.8-1.1c0.2,0,0.4,0,0.6,0c1.2,0,2.3,0.2,3.3,0.5c1.3,0.4,2.3,1,3.2,1.8
			c0.9,0.8,1.6,1.8,2,3c0.4,1.1,0.5,2.4,0.4,3.7c-0.1,0.6-0.4,1.5-1.5,2.1c-0.4,0.2-0.8,0.4-1.3,0.6c-0.5,0.2-1,0.3-1.4,0.3l-0.1,0
			l-0.2,0c-0.9,0-1.7-0.4-2.2-1l-0.7-1l0.4-1.2c0-0.1,0.1-0.3,0.1-0.6c0-0.1,0-0.2,0-0.5c-0.1-0.2-0.2-0.5-0.3-0.7
			c-0.2-0.2-0.4-0.5-0.6-0.6c-0.3-0.2-0.5-0.3-0.8-0.4c-0.2-0.1-0.4-0.1-0.7-0.1l-0.2,0c-0.6,0-1,0.1-1.3,0.2
			c-0.3,0.2-0.6,0.4-0.8,0.6c-0.2,0.2-0.4,0.4-0.5,0.7c-0.2,0.4-0.3,0.7-0.4,1c-0.1,0.4-0.1,0.6-0.1,0.8c0,0.1,0,0.2,0,0.3
			c0.1,0.4,0.3,0.8,0.5,1.1c0.4,0.5,0.9,0.9,1.4,1.3c0.7,0.5,1.3,0.9,2.1,1.3c0.9,0.5,1.7,1.1,2.5,1.7c0.9,0.7,1.6,1.4,2.2,2.2
			c0.7,1,1.2,2.2,1.3,3.5c0.1,1.3,0,2.5-0.4,3.5c-0.4,1-1.1,1.8-1.9,2.5c-0.8,0.6-1.6,1.1-2.6,1.3c-0.9,0.2-1.7,0.4-2.6,0.4
			L154.4,275.5z"/>
		<path class="st11" d="M163.9,274c-0.8,0-1.5-0.2-2.2-0.5c-0.6-0.3-1.1-0.8-1.6-1.3c-0.3-0.4-0.6-0.9-0.8-1.4
			c-0.2-0.5-0.3-0.9-0.4-1.3c-0.1-0.4-0.1-0.7-0.2-1c0-0.3-0.1-0.6-0.1-0.7c0-0.2,0-0.5,0-0.9c0-0.4,0.1-0.9,0.1-1.5
			c0.1-0.5,0.2-1.1,0.3-1.7c0.2-0.7,0.4-1.3,0.7-1.9c0.4-0.7,0.8-1.3,1.3-1.7c0.7-0.6,1.6-1,2.7-1.1c0.1,0,0.3,0,0.4,0
			c1,0,2,0.3,2.7,1c0.6,0.5,1.1,1.2,1.4,2c0.3,0.7,0.5,1.4,0.5,2.1c0,0.1,0,0.2,0,0.2c0.8,0.3,1.5,1,1.6,1.9l0,0.2v0.2
			c0,0.3,0,0.5-0.2,1c-0.1,0.3-0.2,0.8-0.4,1.2c-0.2,0.5-0.4,1-0.7,1.5c-0.3,0.6-0.7,1.1-1.1,1.6c-0.5,0.6-1,1-1.6,1.4
			c-0.8,0.5-1.6,0.8-2.6,0.8C164.1,274,164,274,163.9,274z"/>
		<path class="st11" d="M168.6,273.9c-0.1,0-0.3,0-0.4,0c-0.6,0-1.2-0.2-1.7-0.5c-1-0.5-1.5-1.5-1.4-2.6c0-0.2,0-0.5,0-0.9h0
			l0.1-2.4c0-1.1,0.1-1.9,0.1-2.6c0-0.6,0-1.1,0-1.5c0-0.4,0-0.7-0.1-0.9c0-0.2-0.1-0.5-0.1-0.8c-0.2-1.1,0.5-2.4,2.2-2.8
			c0.3-0.1,0.6-0.1,0.9-0.1c0.1,0,0.3,0,0.4,0c0.6,0,1.1,0.2,1.6,0.5c0.1,0,0.1,0,0.2,0c0.2-0.1,0.5-0.2,0.8-0.3
			c0.4-0.1,0.8-0.2,1.2-0.2l0.3,0c0.8,0.1,1.6,0.4,2.2,1.1c0.2,0.2,0.4,0.5,0.5,0.8c0.1,0.2,0.2,0.5,0.3,0.8
			c0.1,0.4,0.2,0.8,0.1,1.1c0,0.5-0.2,1-0.5,1.4c0,0.1,0,0.3,0,0.5c0,0.2,0,0.4,0.1,0.6c0.8,0.8,1.1,1.9,0.6,2.9
			c-0.2,0.5-0.6,0.9-1,1.2c-0.3,0.2-0.7,0.4-1.1,0.6c-0.4,0.2-0.9,0.2-1.4,0.2c-0.2,0-0.3,0-0.5,0c-0.1,0-0.3,0-0.4-0.1
			c0,0.1,0,0.1,0,0.2c0,0.3,0,0.7,0.1,0.9c0.2,1.1-0.5,2.5-2.2,2.8C169.2,273.9,168.9,273.9,168.6,273.9z"/>
		<path class="st11" d="M177.3,273.9c-1.2,0-2.3-0.5-3.1-1.3c-0.6-0.7-1.1-1.5-1.4-2.5c-0.2-0.8-0.4-1.7-0.5-2.6
			c-0.1-0.8-0.1-1.7-0.1-2.5l0-2.2c0-0.7-0.1-1.1-0.1-1.3l-0.2-1.1l0.7-0.9c0.3-0.4,1-0.9,2-0.9l0.1,0c0.4,0,0.9,0.1,1.4,0.2
			c0.3,0.1,0.5,0.2,0.8,0.3c0.6-0.6,1.5-1,2.4-1.1l0.2,0c0.8,0,1.5,0.2,2.1,0.7c0.7,0.5,1.1,1.2,1.3,2.1c0.2,0,0.4-0.1,0.5-0.1
			c0.7,0,1.3,0.3,1.8,0.7c0.4,0.4,0.8,1,0.8,2.1c0,0.5-0.1,0.9-0.5,1.6c-0.2,0.5-0.6,1-1,1.5c-0.4,0.5-1,1-1.6,1.4
			c-0.2,0.2-0.5,0.3-0.7,0.4c0,0.2-0.1,0.3-0.1,0.5c-0.2,0.7-0.4,1.4-0.7,2c-0.3,0.7-0.8,1.3-1.3,1.8c-0.7,0.7-1.7,1.1-2.7,1.1
			C177.5,273.9,177.4,273.9,177.3,273.9z"/>
		<path class="st11" d="M183,273.9c-0.7,0-1.5-0.3-2.1-0.8c-0.4-0.3-0.7-0.7-0.9-1.2c-0.2-0.3-0.3-0.7-0.4-1
			c-0.1-0.3-0.1-0.5-0.1-0.7c0-0.2,0-0.5,0-1.2l0-1.7c0-0.7,0-1.4,0.1-2.1c0-0.7,0.1-1.4,0.1-2c0-0.7,0.1-1.2,0.1-1.6
			c0-0.3,0.1-0.8,0.3-1.3c-0.4-0.6-0.6-1.3-0.6-2.1c0-0.9,0.3-1.8,0.9-2.5c0.7-0.9,1.7-1.3,2.8-1.3c1.1,0,2.1,0.5,2.8,1.4
			c0.6,0.7,0.8,1.6,0.8,2.5c0,0.9-0.3,1.8-0.8,2.5c0,0,0,0,0,0c0.3,0.5,0.4,1,0.3,1.6l0,0.2l0,0.1c0,0.1-0.1,1.1-0.1,1.4l0.1,0
			c0.3,0,0.5,0.1,0.8,0.2l1.6,0.6l0.1,1.7c0,0.3-0.1,0.6-0.2,1c-0.1,0.3-0.2,0.7-0.3,1.1c-0.1,0.4-0.3,0.9-0.5,1.4
			c-0.2,0.6-0.5,1.1-0.8,1.6c-0.4,0.6-0.8,1-1.3,1.4c-0.9,0.8-1.9,0.9-2.5,0.9C183.1,273.9,183,273.9,183,273.9z"/>
		<path class="st11" d="M188.3,274c-0.8,0-1.5-0.2-2.2-0.5c-0.6-0.3-1.1-0.8-1.6-1.3c-0.3-0.4-0.6-0.9-0.8-1.4
			c-0.2-0.5-0.3-0.9-0.4-1.3c-0.1-0.4-0.1-0.7-0.2-1c0-0.3-0.1-0.6-0.1-0.7c0-0.2,0-0.5,0-0.9c0-0.4,0.1-0.9,0.1-1.5
			c0.1-0.6,0.2-1.1,0.3-1.7c0.2-0.7,0.4-1.3,0.7-1.9c0.4-0.7,0.8-1.2,1.3-1.7c0.7-0.6,1.6-1,2.6-1.1c0.2,0,0.3,0,0.5,0
			c1,0,2,0.4,2.8,1.1c0.6,0.6,1.1,1.3,1.4,2.2c0.2,0.6,0.3,1.3,0.4,2c0.9,0.3,1.6,1,1.8,1.9l0,0.2v0.2c0,0.3-0.1,0.5-0.2,1
			c-0.1,0.3-0.2,0.8-0.4,1.2c-0.2,0.5-0.4,1-0.7,1.5c-0.3,0.6-0.7,1.1-1.1,1.6c-0.5,0.6-1,1-1.6,1.4c-0.8,0.5-1.6,0.8-2.6,0.8
			C188.5,274,188.4,274,188.3,274z"/>
		<path class="st11" d="M194.7,274c-0.8,0-1.5-0.2-2.2-0.5c-0.6-0.3-1.1-0.8-1.6-1.3c-0.3-0.4-0.6-0.9-0.8-1.4
			c-0.2-0.5-0.3-0.9-0.4-1.3c-0.1-0.4-0.1-0.7-0.2-1c0-0.3-0.1-0.6-0.1-0.7c0-0.2,0-0.5,0-0.9c0-0.4,0.1-0.9,0.1-1.5
			c0.1-0.5,0.2-1.1,0.3-1.7c0.2-0.7,0.4-1.3,0.7-1.9c0.4-0.7,0.8-1.3,1.3-1.7c0.7-0.6,1.6-1,2.7-1.1c0.1,0,0.3,0,0.4,0
			c1,0,2,0.3,2.7,1c0.6,0.5,1.1,1.2,1.4,2c0.3,0.7,0.5,1.4,0.5,2.1c0,0.1,0,0.2,0,0.2c0.8,0.3,1.5,1,1.6,1.9l0,0.2v0.2
			c0,0.3,0,0.5-0.2,1c-0.1,0.3-0.2,0.8-0.4,1.2c-0.2,0.5-0.4,1-0.7,1.5c-0.3,0.6-0.7,1.1-1.1,1.6c-0.5,0.6-1,1-1.6,1.4
			c-0.8,0.5-1.6,0.8-2.6,0.8C194.9,274,194.8,274,194.7,274z"/>
		<path class="st11" d="M200.7,274.1c-0.8,0-1.5-0.1-2.2-0.4c-0.7-0.3-1.4-0.7-1.9-1.2c-0.5-0.5-0.8-1.1-1-1.7
			c-0.2-0.5-0.3-1-0.4-1.6c-0.1-0.5-0.1-0.9,0-1.4c0-0.5,0.1-0.8,0.2-1.2c0.2-1,0.8-1.7,1.2-2.1c-0.1-0.5-0.2-0.9-0.2-1.4
			c0-0.7,0.2-1.4,0.5-2c0.3-0.7,0.8-1.2,1.4-1.7c0.7-0.5,1.5-0.8,2.4-0.9c0.2,0,0.4,0,0.6,0c0.5,0,1,0.1,1.4,0.2
			c0.6,0.2,1.1,0.4,1.5,0.7c0.4,0.3,0.8,0.7,1.1,1.1c0.2,0.3,0.4,0.7,0.6,1.1c0.1,0.3,0.2,0.6,0.3,1c0.1,0.4,0.1,0.7,0,1.1
			c-0.1,0.5-0.2,0.9-0.5,1.4c-0.1,0.2-0.3,0.4-0.4,0.6c0.5,0.6,0.8,1.3,1,2.1c0.1,0.4,0.2,1,0.1,1.6c-0.1,0.7-0.3,1.4-0.6,2
			c-0.4,0.7-1,1.3-1.7,1.8c-0.8,0.5-1.8,0.8-3,0.9C201,274.1,200.9,274.1,200.7,274.1z"/>
	</g>
	<path class="st9" d="M155.4,249.6c1.1-0.1,2.1,0.1,3.1,0.3c0.9,0.3,1.7,0.7,2.3,1.3c0.6,0.6,1.1,1.3,1.4,2.1
		c0.3,0.8,0.4,1.7,0.3,2.7c0,0.1-0.1,0.3-0.4,0.4c-0.3,0.2-0.5,0.3-0.8,0.4c-0.3,0.1-0.6,0.2-0.8,0.2c-0.2,0-0.3,0-0.3-0.1
		c0.1-0.2,0.1-0.5,0.2-0.9c0.1-0.4,0.1-0.9,0-1.4c-0.1-0.5-0.3-1-0.7-1.5c-0.3-0.5-0.7-0.9-1.2-1.2c-0.5-0.3-1-0.6-1.5-0.8
		c-0.6-0.2-1.1-0.2-1.7-0.2c-0.8,0-1.6,0.2-2.2,0.5c-0.6,0.3-1.1,0.6-1.5,1c-0.4,0.4-0.7,0.9-1,1.3c-0.2,0.5-0.4,1-0.5,1.4
		c-0.1,0.5-0.2,0.8-0.2,1.2c0,0.3,0,0.6,0,0.7c0.2,0.9,0.5,1.6,1,2.2c0.5,0.6,1.1,1.2,1.9,1.7c0.7,0.5,1.5,1,2.3,1.4
		c0.8,0.5,1.5,1,2.2,1.5c0.7,0.5,1.3,1.1,1.8,1.8c0.5,0.7,0.8,1.4,0.9,2.4c0.1,0.9,0,1.7-0.3,2.4c-0.3,0.6-0.7,1.2-1.2,1.6
		c-0.5,0.4-1.1,0.7-1.7,0.9c-0.7,0.2-1.3,0.3-2,0.3c-0.9,0-1.6-0.1-2.2-0.3c-0.6-0.2-1.1-0.4-1.5-0.7c-0.5-0.3-0.9-0.6-1.2-1
		l0.4-1.2c0.4,0.4,0.9,0.8,1.4,1.1c0.4,0.3,1,0.5,1.5,0.8c0.6,0.2,1.2,0.3,1.8,0.3c0.2,0,0.5-0.1,0.9-0.2c0.4-0.1,0.8-0.3,1.1-0.6
		c0.4-0.3,0.7-0.7,0.9-1.2c0.2-0.5,0.3-1.2,0.2-2c-0.1-0.6-0.4-1.1-0.9-1.7c-0.5-0.5-1.2-1.1-1.9-1.6c-0.8-0.5-1.6-1.1-2.4-1.6
		c-0.9-0.6-1.7-1.1-2.4-1.8c-0.7-0.6-1.4-1.3-1.9-2c-0.5-0.7-0.8-1.6-0.8-2.5c-0.1-0.8,0-1.6,0.2-2.5c0.2-0.9,0.6-1.6,1.2-2.4
		s1.4-1.3,2.4-1.8C152.6,249.9,153.9,249.6,155.4,249.6z"/>
	<path class="st9" d="M164.1,261.1c0.5-0.1,1,0.1,1.3,0.4c0.3,0.3,0.6,0.7,0.8,1.1c0.2,0.5,0.3,1,0.4,1.5c0.1,0.5,0.1,1,0,1.5
		c-0.1,0.9-0.3,1.7-0.6,2.2c-0.3,0.5-0.6,0.9-1,1.2c-0.4,0.3-0.7,0.5-1.1,0.5c-0.4,0.1-0.6,0.1-0.9,0.1c0.2,0.5,0.4,0.8,0.7,0.9
		c0.3,0.2,0.4,0.2,0.6,0.2c0.3,0,0.7-0.1,1-0.3c0.3-0.2,0.6-0.4,0.8-0.7s0.4-0.6,0.6-0.9c0.2-0.3,0.3-0.7,0.5-1
		c0.1-0.3,0.2-0.6,0.3-0.9c0.1-0.3,0.1-0.5,0.2-0.7c0-0.1,0.1-0.1,0.3-0.1c0.2,0,0.3,0.1,0.3,0.2c0,0,0,0.2-0.1,0.5
		c-0.1,0.3-0.2,0.6-0.3,1c-0.1,0.4-0.3,0.8-0.6,1.2s-0.5,0.8-0.8,1.2c-0.3,0.4-0.7,0.7-1.1,0.9c-0.4,0.3-0.8,0.4-1.3,0.4
		c-0.4,0-0.8,0-1.1-0.2c-0.3-0.2-0.6-0.4-0.8-0.7s-0.4-0.6-0.5-0.9c-0.1-0.3-0.2-0.7-0.3-1c-0.1-0.3-0.1-0.6-0.1-0.8
		c0-0.2,0-0.4,0-0.5c0-0.2,0-0.5,0-0.8s0-0.8,0.1-1.3c0.1-0.5,0.2-1,0.3-1.5c0.1-0.5,0.3-1,0.5-1.4s0.5-0.8,0.8-1.1
		C163.2,261.3,163.6,261.1,164.1,261.1z M162.9,267.6c0,0.3,0,0.6,0,0.9c0,0.3,0.1,0.5,0.1,0.7c0.2,0,0.4,0,0.6-0.1
		c0.2-0.1,0.5-0.2,0.7-0.4c0.2-0.2,0.5-0.6,0.6-1.1c0.2-0.5,0.3-1.1,0.4-2c0.1-1.4,0-2.4-0.2-3c-0.2-0.6-0.5-0.9-1-0.8
		c-0.1,0-0.3,0.1-0.4,0.4c-0.1,0.2-0.2,0.5-0.3,0.8c-0.1,0.3-0.2,0.7-0.3,1.1c-0.1,0.4-0.1,0.8-0.2,1.2c-0.1,0.4-0.1,0.8-0.1,1.2
		C162.9,267,162.9,267.3,162.9,267.6z"/>
	<path class="st9" d="M170.9,261.6c0.1,0,0.3-0.1,0.4-0.1s0.3-0.1,0.5-0.2c0.2-0.1,0.4-0.1,0.6-0.1c0.2,0,0.4,0.1,0.5,0.3
		c0.1,0.1,0.1,0.2,0.2,0.3c0.1,0.1,0.1,0.3,0.2,0.4c0,0.1,0.1,0.3,0,0.4c0,0.1,0,0.2-0.1,0.3c-0.1,0.1-0.2,0.3-0.2,0.6
		c-0.1,0.3-0.1,0.7-0.1,1.1c0,0.4,0.1,0.8,0.2,1.3c0.1,0.4,0.4,0.8,0.7,1.1c0.1,0.1,0.1,0.2,0,0.3c-0.1,0.1-0.1,0.2-0.3,0.3
		c-0.1,0.1-0.3,0.2-0.5,0.3c-0.2,0.1-0.4,0.1-0.6,0.1c-0.2,0-0.4-0.1-0.6-0.3c-0.2-0.2-0.4-0.4-0.5-0.7c-0.2-0.3-0.2-0.7-0.2-1.2
		c0-0.5,0-0.9,0.1-1.4c0.1-0.4,0.1-0.8,0.2-1.1c0.1-0.3,0.1-0.5,0-0.5c-0.1,0-0.1,0-0.2,0.2c-0.1,0.2-0.2,0.4-0.4,0.7
		c-0.1,0.3-0.3,0.7-0.4,1.1c-0.2,0.4-0.3,0.9-0.4,1.3c-0.1,0.5-0.3,0.9-0.4,1.4c-0.1,0.5-0.2,0.9-0.2,1.3c0,0.6,0,1.1,0,1.5
		c0,0.5,0.1,0.8,0.1,1.2c0,0.1-0.1,0.1-0.3,0.2c-0.2,0-0.4,0-0.7,0s-0.5-0.1-0.7-0.2c-0.2-0.1-0.3-0.3-0.3-0.5c0,0,0-0.4,0-1
		c0-0.6,0.1-1.4,0.1-2.4h0c0-1.1,0.1-2,0.1-2.6c0-0.7,0-1.2,0-1.6c0-0.4,0-0.8-0.1-1c0-0.3-0.1-0.6-0.1-0.9c0-0.1,0.1-0.1,0.3-0.2
		c0.2,0,0.4,0,0.7,0c0.2,0,0.5,0.1,0.7,0.2c0.2,0.1,0.3,0.3,0.3,0.5c0,0.6,0,1.2-0.1,1.7c0,0.6,0,1.1,0,1.6c0.1-0.5,0.3-0.9,0.4-1.3
		c0.2-0.4,0.3-0.8,0.5-1.2s0.3-0.6,0.4-0.8C170.7,261.7,170.8,261.6,170.9,261.6z"/>
	<path class="st9" d="M174.4,261.1c0-0.1,0.1-0.1,0.3-0.1c0.2,0,0.4,0,0.7,0.1c0.3,0.1,0.5,0.2,0.7,0.3c0.2,0.2,0.4,0.3,0.4,0.5
		c0,0.1,0,0.3,0,0.6s0,0.7,0,1.1c0,0.4,0,0.9,0,1.5c0,0.5,0,1.1,0,1.6c0,0.5,0,1.1,0.1,1.6c0,0.5,0.1,1,0.2,1.4
		c0.1,0.4,0.2,0.7,0.3,0.9c0.1,0.2,0.3,0.3,0.4,0.3c0.2,0,0.4-0.1,0.6-0.4c0.2-0.3,0.4-0.6,0.5-1c0.2-0.4,0.3-0.9,0.4-1.4
		c0.1-0.5,0.2-1,0.3-1.5c-0.3-0.1-0.6-0.3-0.8-0.7c-0.2-0.4-0.4-0.8-0.5-1.2c-0.1-0.5-0.2-0.9-0.2-1.4c0-0.5,0.1-1,0.2-1.4
		c0.1-0.4,0.3-0.8,0.5-1c0.2-0.3,0.5-0.4,0.9-0.4c0.3,0,0.5,0.1,0.7,0.2c0.2,0.1,0.3,0.4,0.4,0.8c0,0.1,0,0.3,0,0.5c0,0.3,0,0.6,0,1
		c0,0.4,0,0.9-0.1,1.4c0,0.5-0.1,1-0.1,1.6c0.4,0,0.8-0.2,1.1-0.4c0.3-0.3,0.6-0.6,0.9-0.9c0.2-0.3,0.4-0.6,0.6-0.9
		c0.1-0.3,0.2-0.5,0.3-0.5c0.1-0.1,0.2-0.2,0.3-0.1s0.1,0.3,0.1,0.5c0,0.1-0.1,0.3-0.2,0.7c-0.2,0.3-0.4,0.7-0.7,1
		c-0.3,0.3-0.6,0.7-1.1,0.9s-0.9,0.4-1.4,0.4c-0.1,0.6-0.2,1.2-0.4,1.8s-0.3,1.1-0.6,1.6c-0.2,0.5-0.5,0.8-0.8,1.1
		c-0.3,0.3-0.7,0.4-1.1,0.5c-0.6,0-1.1-0.1-1.5-0.5c-0.4-0.4-0.7-0.9-0.8-1.5c-0.2-0.6-0.3-1.4-0.4-2.2c-0.1-0.8-0.1-1.6-0.1-2.4
		c0-0.8,0-1.5,0-2.2C174.6,262.1,174.5,261.5,174.4,261.1z M179.4,261.2c-0.1,0-0.2,0.1-0.3,0.3c-0.1,0.2-0.2,0.4-0.2,0.7
		c-0.1,0.3-0.1,0.6-0.1,1c0,0.4,0,0.7,0.1,1c0.1,0.3,0.1,0.6,0.2,0.9c0.1,0.3,0.2,0.5,0.4,0.6c0.1-0.6,0.1-1,0.2-1.4
		c0-0.4,0-0.6,0-0.7c0-0.1,0-0.3,0-0.6c0-0.3,0-0.6,0-0.8s0-0.5-0.1-0.7C179.7,261.2,179.6,261.1,179.4,261.2z"/>
	<path class="st9" d="M182.4,261.3c0.1,0,0.2,0,0.4,0c0.2,0,0.4,0.1,0.5,0.1c0.2,0.1,0.3,0.2,0.5,0.3c0.1,0.1,0.2,0.3,0.2,0.5
		c0,0.1,0,0.3-0.1,0.7c0,0.4-0.1,0.9-0.1,1.5c0,0.6-0.1,1.3-0.1,1.9c0,0.7-0.1,1.3-0.1,1.9c0,0.6,0,1.1,0,1.5c0,0.4,0.1,0.6,0.1,0.6
		c0.1,0,0.3-0.1,0.4-0.3c0.2-0.2,0.3-0.5,0.4-0.8c0.1-0.3,0.3-0.6,0.4-1s0.2-0.7,0.3-1c0.1-0.3,0.2-0.6,0.2-0.8
		c0.1-0.2,0.1-0.3,0.1-0.3s0,0,0.1,0c0.1,0,0.1,0,0.2,0c0.1,0,0.1,0,0.2,0c0.1,0,0.1,0,0.1,0.1c0,0,0,0.2-0.1,0.4
		c-0.1,0.3-0.2,0.6-0.3,1c-0.1,0.4-0.3,0.8-0.5,1.2c-0.2,0.4-0.4,0.9-0.6,1.2c-0.2,0.4-0.5,0.7-0.8,0.9c-0.3,0.2-0.6,0.4-0.9,0.3
		c-0.2,0-0.4-0.1-0.6-0.2c-0.2-0.1-0.3-0.3-0.4-0.5c-0.1-0.2-0.2-0.4-0.2-0.5c0-0.2-0.1-0.3-0.1-0.5c0-0.1,0-0.3,0-0.8
		c0-0.5,0-1,0-1.7c0-0.6,0-1.3,0.1-2.1c0-0.7,0.1-1.4,0.1-2c0-0.6,0.1-1.1,0.1-1.5C182.3,261.5,182.3,261.3,182.4,261.3z M182,258.3
		c0-0.4,0.1-0.8,0.4-1.1c0.2-0.3,0.5-0.5,0.9-0.5c0.3,0,0.6,0.1,0.9,0.5c0.2,0.3,0.4,0.7,0.4,1.1c0,0.4-0.1,0.8-0.4,1.1
		c-0.2,0.3-0.5,0.5-0.9,0.5c-0.3,0-0.6-0.1-0.9-0.5C182.1,259.1,182,258.7,182,258.3z"/>
	<path class="st9" d="M190.5,266c-0.1,0.1-0.2,0.2-0.3,0.3c-0.1,0.1-0.2,0.2-0.4,0.2c-0.1,0-0.2,0-0.3,0c-0.1,0-0.1-0.2-0.1-0.4
		c0.2-0.5,0.3-1,0.3-1.5c0-0.5,0-1-0.1-1.4c-0.1-0.4-0.2-0.8-0.4-1c-0.2-0.3-0.4-0.4-0.6-0.4c-0.2,0-0.4,0.3-0.5,0.7
		c-0.2,0.4-0.3,1-0.4,1.6c-0.1,0.6-0.2,1.2-0.3,1.9c-0.1,0.6-0.1,1.2-0.1,1.6c0,0.7,0,1.2,0.2,1.7c0.1,0.4,0.3,0.8,0.4,1
		s0.3,0.4,0.5,0.5c0.2,0.1,0.3,0.1,0.4,0.1c0.3,0,0.7-0.1,1-0.3c0.3-0.2,0.6-0.4,0.8-0.7s0.4-0.6,0.6-0.9c0.2-0.3,0.3-0.7,0.5-1
		c0.1-0.3,0.2-0.6,0.3-0.9c0.1-0.3,0.1-0.5,0.2-0.7c0-0.1,0.1-0.1,0.3-0.1c0.2,0,0.3,0.1,0.3,0.2c0,0,0,0.2-0.1,0.5
		c-0.1,0.3-0.2,0.6-0.3,1c-0.1,0.4-0.3,0.8-0.6,1.2s-0.5,0.8-0.8,1.2c-0.3,0.4-0.7,0.7-1.1,0.9c-0.4,0.3-0.8,0.4-1.3,0.4
		c-0.4,0-0.8,0-1.1-0.2c-0.3-0.2-0.6-0.4-0.8-0.7c-0.2-0.3-0.4-0.6-0.5-0.9c-0.1-0.3-0.2-0.7-0.3-1c-0.1-0.3-0.1-0.6-0.1-0.8
		c0-0.2,0-0.4,0-0.5c0-0.2,0-0.4,0-0.8c0-0.4,0-0.8,0.1-1.3c0.1-0.5,0.2-1,0.3-1.5c0.1-0.5,0.3-1,0.5-1.4c0.2-0.4,0.5-0.8,0.8-1.1
		c0.3-0.3,0.7-0.5,1.2-0.5c0.5-0.1,0.9,0.1,1.3,0.4c0.4,0.3,0.6,0.7,0.8,1.2c0.2,0.5,0.3,1.1,0.2,1.7S190.7,265.5,190.5,266z"/>
	<path class="st9" d="M194.9,261.1c0.5-0.1,1,0.1,1.3,0.4c0.3,0.3,0.6,0.7,0.8,1.1c0.2,0.5,0.3,1,0.4,1.5c0.1,0.5,0.1,1,0,1.5
		c-0.1,0.9-0.3,1.7-0.6,2.2c-0.3,0.5-0.6,0.9-1,1.2c-0.4,0.3-0.7,0.5-1.1,0.5c-0.4,0.1-0.6,0.1-0.9,0.1c0.2,0.5,0.4,0.8,0.7,0.9
		c0.3,0.2,0.4,0.2,0.6,0.2c0.3,0,0.7-0.1,1-0.3c0.3-0.2,0.6-0.4,0.8-0.7c0.2-0.3,0.4-0.6,0.6-0.9c0.2-0.3,0.3-0.7,0.5-1
		c0.1-0.3,0.2-0.6,0.3-0.9c0.1-0.3,0.1-0.5,0.2-0.7c0-0.1,0.1-0.1,0.3-0.1c0.2,0,0.3,0.1,0.3,0.2c0,0,0,0.2-0.1,0.5
		c-0.1,0.3-0.2,0.6-0.3,1c-0.1,0.4-0.3,0.8-0.6,1.2c-0.2,0.4-0.5,0.8-0.8,1.2c-0.3,0.4-0.7,0.7-1.1,0.9c-0.4,0.3-0.8,0.4-1.3,0.4
		c-0.4,0-0.8,0-1.1-0.2c-0.3-0.2-0.6-0.4-0.8-0.7s-0.4-0.6-0.5-0.9c-0.1-0.3-0.2-0.7-0.3-1c-0.1-0.3-0.1-0.6-0.1-0.8
		c0-0.2,0-0.4,0-0.5c0-0.2,0-0.5,0-0.8c0-0.4,0-0.8,0.1-1.3c0.1-0.5,0.2-1,0.3-1.5c0.1-0.5,0.3-1,0.5-1.4c0.2-0.4,0.5-0.8,0.8-1.1
		C194,261.3,194.4,261.1,194.9,261.1z M193.7,267.6c0,0.3,0,0.6,0,0.9c0,0.3,0.1,0.5,0.1,0.7c0.2,0,0.4,0,0.6-0.1s0.5-0.2,0.7-0.4
		c0.2-0.2,0.5-0.6,0.6-1.1c0.2-0.5,0.3-1.1,0.4-2c0.1-1.4,0-2.4-0.2-3c-0.2-0.6-0.5-0.9-1-0.8c-0.1,0-0.3,0.1-0.4,0.4
		c-0.1,0.2-0.2,0.5-0.3,0.8c-0.1,0.3-0.2,0.7-0.3,1.1c-0.1,0.4-0.1,0.8-0.2,1.2c-0.1,0.4-0.1,0.8-0.1,1.2
		C193.7,267,193.7,267.3,193.7,267.6z"/>
	<path class="st9" d="M201.1,260.8c0.4,0,0.7,0,1,0.1c0.3,0.1,0.5,0.2,0.8,0.4c0.2,0.2,0.4,0.3,0.5,0.5c0.1,0.2,0.2,0.4,0.3,0.6
		c0.1,0.2,0.1,0.4,0.1,0.6c0,0.2,0,0.3,0,0.4c0,0.2-0.1,0.4-0.2,0.6c-0.1,0.2-0.3,0.4-0.4,0.6c-0.2,0.2-0.3,0.3-0.4,0.3
		c-0.1,0.1-0.2,0-0.3-0.1c0-0.1,0-0.3,0-0.5c0-0.2,0-0.4,0.1-0.7c0-0.3,0-0.5,0-0.8c0-0.3,0-0.5-0.1-0.7c-0.1-0.2-0.2-0.4-0.4-0.5
		c-0.2-0.1-0.4-0.2-0.7-0.1c-0.2,0-0.3,0.1-0.4,0.3s-0.2,0.4-0.2,0.6c0,0.2,0,0.4,0,0.7c0,0.2,0,0.4,0.1,0.6
		c0.1,0.4,0.3,0.8,0.6,1.1c0.3,0.4,0.6,0.7,0.9,1.1c0.3,0.4,0.6,0.8,0.9,1.1c0.3,0.4,0.5,0.8,0.6,1.3c0.1,0.2,0.1,0.5,0,0.9
		c0,0.4-0.2,0.8-0.4,1.1c-0.2,0.4-0.5,0.7-1,1c-0.4,0.3-1,0.4-1.7,0.5c-0.6,0-1.1,0-1.4-0.2c-0.4-0.2-0.7-0.4-1-0.6
		c-0.3-0.3-0.4-0.6-0.6-0.9c-0.1-0.3-0.2-0.7-0.2-1.1c0-0.4,0-0.7,0-1c0-0.3,0.1-0.6,0.1-0.9c0.1-0.4,0.2-0.7,0.5-0.8
		c0.2-0.2,0.5-0.3,0.7-0.3c0.2,0,0.4,0,0.6,0.1c0.2,0.1,0.2,0.2,0.1,0.4c-0.2,0.4-0.4,0.9-0.4,1.4c0,0.5,0,1,0.1,1.4
		c0.1,0.5,0.3,0.8,0.5,1.2c0.3,0.3,0.6,0.5,0.9,0.6c0.3,0,0.5,0,0.7-0.1c0.2-0.1,0.4-0.2,0.5-0.4c0.1-0.2,0.2-0.4,0.3-0.6
		c0.1-0.2,0.1-0.5,0.1-0.7c-0.1-0.4-0.2-0.8-0.5-1.2c-0.3-0.4-0.6-0.8-1-1.3c-0.4-0.4-0.7-0.8-1.1-1.2c-0.4-0.4-0.6-0.8-0.7-1.1
		c-0.1-0.4-0.2-0.7-0.2-1.1c0-0.4,0.1-0.7,0.3-1.1c0.2-0.3,0.4-0.6,0.7-0.8C200.2,261,200.6,260.9,201.1,260.8z"/>
</g>
</svg>
